<svg width="1280" height="540" viewBox="0 0 1280 540" fill="none" xmlns="http://www.w3.org/2000/svg">
<rect width="1280" height="540" fill="url(#paint0_linear_6_7)"/>
<path d="M67.9219 63.4375L72.2188 63.375C72.0521 64.9583 71.6094 66.3542 70.8906 67.5625C70.1823 68.7708 69.2188 69.7083 68 70.375C66.7917 71.0417 65.3646 71.3542 63.7188 71.3125C62.3438 71.2812 61.2135 70.9844 60.3281 70.4219C59.4427 69.849 58.7604 69.099 58.2812 68.1719C57.8021 67.2344 57.5052 66.1979 57.3906 65.0625C57.276 63.9167 57.2917 62.75 57.4375 61.5625L58.0312 57.7031C58.2188 56.4427 58.5365 55.224 58.9844 54.0469C59.4323 52.8594 60.026 51.8021 60.7656 50.875C61.5052 49.9375 62.4115 49.2031 63.4844 48.6719C64.5677 48.1406 65.8177 47.8906 67.2344 47.9219C68.8698 47.9531 70.1615 48.3333 71.1094 49.0625C72.0677 49.7812 72.7552 50.7448 73.1719 51.9531C73.5885 53.1615 73.8021 54.5 73.8125 55.9688L69.3438 55.9531C69.3854 55.2448 69.375 54.5729 69.3125 53.9375C69.25 53.2917 69.0417 52.7656 68.6875 52.3594C68.3438 51.9427 67.7448 51.7188 66.8906 51.6875C66.0573 51.6562 65.3698 51.8229 64.8281 52.1875C64.2969 52.5521 63.8698 53.0365 63.5469 53.6406C63.2344 54.2448 62.9948 54.901 62.8281 55.6094C62.6719 56.3177 62.5469 57.0052 62.4531 57.6719L61.9062 61.5781C61.8333 62.1198 61.7656 62.724 61.7031 63.3906C61.651 64.0573 61.6667 64.7031 61.75 65.3281C61.8333 65.9531 62.0469 66.474 62.3906 66.8906C62.7344 67.3073 63.2917 67.5365 64.0625 67.5781C64.9688 67.6094 65.6771 67.4427 66.1875 67.0781C66.6979 66.7135 67.0781 66.2135 67.3281 65.5781C67.5885 64.9323 67.7865 64.2188 67.9219 63.4375ZM91.5938 57.8594L91.0312 61.625C90.8333 62.9062 90.5052 64.1406 90.0469 65.3281C89.5885 66.5052 88.9792 67.5469 88.2188 68.4531C87.4583 69.3594 86.5365 70.0729 85.4531 70.5938C84.3698 71.1042 83.1146 71.3438 81.6875 71.3125C80.3229 71.2812 79.1823 70.9896 78.2656 70.4375C77.3594 69.8854 76.651 69.151 76.1406 68.2344C75.6302 67.3177 75.2969 66.2917 75.1406 65.1562C74.9948 64.0104 74.9948 62.8438 75.1406 61.6562L75.7031 57.875C75.901 56.5833 76.2292 55.3438 76.6875 54.1562C77.1458 52.9583 77.7552 51.8854 78.5156 50.9375C79.2865 49.9896 80.2188 49.2448 81.3125 48.7031C82.4062 48.151 83.6771 47.8958 85.125 47.9375C86.5104 47.9688 87.6562 48.276 88.5625 48.8594C89.4688 49.4427 90.1719 50.2135 90.6719 51.1719C91.1719 52.1198 91.4896 53.1771 91.625 54.3438C91.7604 55.5 91.75 56.6719 91.5938 57.8594ZM86.6094 61.6562L87.1562 57.7969C87.2292 57.2656 87.2812 56.6667 87.3125 56C87.3542 55.3229 87.3177 54.6667 87.2031 54.0312C87.0885 53.3854 86.849 52.849 86.4844 52.4219C86.1198 51.9948 85.5573 51.7656 84.7969 51.7344C83.9635 51.6927 83.2656 51.8594 82.7031 52.2344C82.151 52.6094 81.7031 53.1146 81.3594 53.75C81.0156 54.375 80.75 55.0469 80.5625 55.7656C80.3854 56.4844 80.2448 57.1719 80.1406 57.8281L79.6094 61.6719C79.5365 62.2135 79.4844 62.8125 79.4531 63.4688C79.4219 64.125 79.4688 64.7604 79.5938 65.375C79.7292 65.9792 79.9792 66.4844 80.3438 66.8906C80.7188 67.2865 81.2865 67.5 82.0469 67.5312C82.849 67.5729 83.5208 67.4167 84.0625 67.0625C84.6042 66.6979 85.0469 66.2188 85.3906 65.625C85.7344 65.0312 86 64.3854 86.1875 63.6875C86.375 62.9792 86.5156 62.3021 86.6094 61.6562ZM112 48.25L108.047 71H103.688L99.6875 55.8438L97.0625 71H92.5938L96.5156 48.25H100.891L104.922 63.4219L107.547 48.25H112ZM120 48.25L116.062 71H111.594L115.516 48.25H120ZM125.25 57.9219L124.578 61.7031H116.516L117.188 57.9219H125.25ZM127.766 48.25L127.094 52.0469H118.203L118.859 48.25H127.766ZM134.953 48.25L131 71H126.562L130.516 48.25H134.953ZM138.688 48.25L145.562 48.2656C146.927 48.3073 148.073 48.6042 149 49.1562C149.938 49.6979 150.63 50.4688 151.078 51.4688C151.536 52.4583 151.708 53.6354 151.594 55C151.5 56.1354 151.255 57.1302 150.859 57.9844C150.474 58.8281 149.932 59.5677 149.234 60.2031C148.536 60.8281 147.682 61.375 146.672 61.8438L145.156 62.6562H139.188L139.844 58.8594L143.625 58.8906C144.323 58.8802 144.917 58.7188 145.406 58.4062C145.896 58.0938 146.281 57.6719 146.562 57.1406C146.854 56.6094 147.042 56.0208 147.125 55.375C147.188 54.8854 147.193 54.3906 147.141 53.8906C147.099 53.3906 146.943 52.9688 146.672 52.625C146.401 52.2812 145.969 52.0938 145.375 52.0625L142.516 52.0469L139.234 71H134.766L138.688 48.25ZM144.875 71L142.578 60.8594L147.078 60.8438L149.641 70.75V71H144.875ZM163.156 52.5312L155.266 71H150.422L161.266 48.25H164.312L163.156 52.5312ZM163.734 71L162.172 52.1562L162.422 48.25H165.312L168.328 71H163.734ZM165.344 62.5156L164.672 66.3125H154.672L155.344 62.5156H165.344ZM195.531 57.8594L194.969 61.625C194.771 62.9062 194.443 64.1406 193.984 65.3281C193.526 66.5052 192.917 67.5469 192.156 68.4531C191.396 69.3594 190.474 70.0729 189.391 70.5938C188.307 71.1042 187.052 71.3438 185.625 71.3125C184.26 71.2812 183.12 70.9896 182.203 70.4375C181.297 69.8854 180.589 69.151 180.078 68.2344C179.568 67.3177 179.234 66.2917 179.078 65.1562C178.932 64.0104 178.932 62.8438 179.078 61.6562L179.641 57.875C179.839 56.5833 180.167 55.3438 180.625 54.1562C181.083 52.9583 181.693 51.8854 182.453 50.9375C183.224 49.9896 184.156 49.2448 185.25 48.7031C186.344 48.151 187.615 47.8958 189.062 47.9375C190.448 47.9688 191.594 48.276 192.5 48.8594C193.406 49.4427 194.109 50.2135 194.609 51.1719C195.109 52.1198 195.427 53.1771 195.562 54.3438C195.698 55.5 195.688 56.6719 195.531 57.8594ZM190.547 61.6562L191.094 57.7969C191.167 57.2656 191.219 56.6667 191.25 56C191.292 55.3229 191.255 54.6667 191.141 54.0312C191.026 53.3854 190.786 52.849 190.422 52.4219C190.057 51.9948 189.495 51.7656 188.734 51.7344C187.901 51.6927 187.203 51.8594 186.641 52.2344C186.089 52.6094 185.641 53.1146 185.297 53.75C184.953 54.375 184.688 55.0469 184.5 55.7656C184.323 56.4844 184.182 57.1719 184.078 57.8281L183.547 61.6719C183.474 62.2135 183.422 62.8125 183.391 63.4688C183.359 64.125 183.406 64.7604 183.531 65.375C183.667 65.9792 183.917 66.4844 184.281 66.8906C184.656 67.2865 185.224 67.5 185.984 67.5312C186.786 67.5729 187.458 67.4167 188 67.0625C188.542 66.6979 188.984 66.2188 189.328 65.625C189.672 65.0312 189.938 64.3854 190.125 63.6875C190.312 62.9792 190.453 62.3021 190.547 61.6562Z" fill="white"/>
<path d="M223.25 48.25L219.297 71H214.938L210.938 55.8438L208.312 71H203.844L207.766 48.25H212.141L216.172 63.4219L218.797 48.25H223.25ZM240.594 57.8594L240.031 61.625C239.833 62.9062 239.505 64.1406 239.047 65.3281C238.589 66.5052 237.979 67.5469 237.219 68.4531C236.458 69.3594 235.536 70.0729 234.453 70.5938C233.37 71.1042 232.115 71.3438 230.688 71.3125C229.323 71.2812 228.182 70.9896 227.266 70.4375C226.359 69.8854 225.651 69.151 225.141 68.2344C224.63 67.3177 224.297 66.2917 224.141 65.1562C223.995 64.0104 223.995 62.8438 224.141 61.6562L224.703 57.875C224.901 56.5833 225.229 55.3438 225.688 54.1562C226.146 52.9583 226.755 51.8854 227.516 50.9375C228.286 49.9896 229.219 49.2448 230.312 48.7031C231.406 48.151 232.677 47.8958 234.125 47.9375C235.51 47.9688 236.656 48.276 237.562 48.8594C238.469 49.4427 239.172 50.2135 239.672 51.1719C240.172 52.1198 240.49 53.1771 240.625 54.3438C240.76 55.5 240.75 56.6719 240.594 57.8594ZM235.609 61.6562L236.156 57.7969C236.229 57.2656 236.281 56.6667 236.312 56C236.354 55.3229 236.318 54.6667 236.203 54.0312C236.089 53.3854 235.849 52.849 235.484 52.4219C235.12 51.9948 234.557 51.7656 233.797 51.7344C232.964 51.6927 232.266 51.8594 231.703 52.2344C231.151 52.6094 230.703 53.1146 230.359 53.75C230.016 54.375 229.75 55.0469 229.562 55.7656C229.385 56.4844 229.245 57.1719 229.141 57.8281L228.609 61.6719C228.536 62.2135 228.484 62.8125 228.453 63.4688C228.422 64.125 228.469 64.7604 228.594 65.375C228.729 65.9792 228.979 66.4844 229.344 66.8906C229.719 67.2865 230.286 67.5 231.047 67.5312C231.849 67.5729 232.521 67.4167 233.062 67.0625C233.604 66.6979 234.047 66.2188 234.391 65.625C234.734 65.0312 235 64.3854 235.188 63.6875C235.375 62.9792 235.516 62.3021 235.609 61.6562ZM252.016 64.8906C252.078 64.4219 252.062 64.0156 251.969 63.6719C251.885 63.3281 251.729 63.026 251.5 62.7656C251.281 62.4948 251.01 62.2552 250.688 62.0469C250.365 61.8281 250 61.625 249.594 61.4375C248.844 61.0729 248.146 60.6719 247.5 60.2344C246.854 59.7969 246.281 59.3021 245.781 58.75C245.292 58.1979 244.922 57.5677 244.672 56.8594C244.422 56.1406 244.328 55.3333 244.391 54.4375C244.464 53.4167 244.724 52.5 245.172 51.6875C245.62 50.875 246.203 50.1875 246.922 49.625C247.641 49.0521 248.448 48.625 249.344 48.3438C250.24 48.0521 251.177 47.9167 252.156 47.9375C253.521 47.9688 254.667 48.3021 255.594 48.9375C256.521 49.5625 257.208 50.401 257.656 51.4531C258.115 52.4948 258.323 53.6667 258.281 54.9688L253.828 54.9531C253.859 54.4531 253.828 53.9479 253.734 53.4375C253.651 52.9271 253.453 52.5104 253.141 52.1875C252.839 51.8542 252.375 51.6823 251.75 51.6719C251.198 51.6719 250.714 51.7969 250.297 52.0469C249.88 52.2865 249.542 52.6146 249.281 53.0312C249.021 53.4479 248.854 53.9167 248.781 54.4375C248.729 54.8438 248.771 55.2083 248.906 55.5312C249.052 55.8542 249.25 56.1458 249.5 56.4062C249.76 56.6562 250.052 56.8854 250.375 57.0938C250.698 57.3021 251.021 57.474 251.344 57.6094C252.125 58.0052 252.844 58.4219 253.5 58.8594C254.167 59.2969 254.729 59.8021 255.188 60.375C255.656 60.9375 255.995 61.5885 256.203 62.3281C256.422 63.0677 256.5 63.9115 256.438 64.8594C256.354 65.9115 256.099 66.8385 255.672 67.6406C255.255 68.4427 254.703 69.125 254.016 69.6875C253.328 70.2396 252.542 70.6562 251.656 70.9375C250.771 71.2188 249.823 71.349 248.812 71.3281C247.729 71.2969 246.76 71.0938 245.906 70.7188C245.052 70.3333 244.333 69.8073 243.75 69.1406C243.177 68.4635 242.75 67.6719 242.469 66.7656C242.188 65.849 242.078 64.8646 242.141 63.8125L246.594 63.8281C246.562 64.3177 246.568 64.7917 246.609 65.25C246.651 65.7083 246.766 66.1094 246.953 66.4531C247.141 66.7969 247.411 67.0729 247.766 67.2812C248.12 67.4896 248.589 67.5938 249.172 67.5938C249.724 67.5938 250.198 67.4792 250.594 67.25C250.99 67.0104 251.307 66.6875 251.547 66.2812C251.786 65.875 251.943 65.4115 252.016 64.8906ZM268.766 64.8906C268.828 64.4219 268.812 64.0156 268.719 63.6719C268.635 63.3281 268.479 63.026 268.25 62.7656C268.031 62.4948 267.76 62.2552 267.438 62.0469C267.115 61.8281 266.75 61.625 266.344 61.4375C265.594 61.0729 264.896 60.6719 264.25 60.2344C263.604 59.7969 263.031 59.3021 262.531 58.75C262.042 58.1979 261.672 57.5677 261.422 56.8594C261.172 56.1406 261.078 55.3333 261.141 54.4375C261.214 53.4167 261.474 52.5 261.922 51.6875C262.37 50.875 262.953 50.1875 263.672 49.625C264.391 49.0521 265.198 48.625 266.094 48.3438C266.99 48.0521 267.927 47.9167 268.906 47.9375C270.271 47.9688 271.417 48.3021 272.344 48.9375C273.271 49.5625 273.958 50.401 274.406 51.4531C274.865 52.4948 275.073 53.6667 275.031 54.9688L270.578 54.9531C270.609 54.4531 270.578 53.9479 270.484 53.4375C270.401 52.9271 270.203 52.5104 269.891 52.1875C269.589 51.8542 269.125 51.6823 268.5 51.6719C267.948 51.6719 267.464 51.7969 267.047 52.0469C266.63 52.2865 266.292 52.6146 266.031 53.0312C265.771 53.4479 265.604 53.9167 265.531 54.4375C265.479 54.8438 265.521 55.2083 265.656 55.5312C265.802 55.8542 266 56.1458 266.25 56.4062C266.51 56.6562 266.802 56.8854 267.125 57.0938C267.448 57.3021 267.771 57.474 268.094 57.6094C268.875 58.0052 269.594 58.4219 270.25 58.8594C270.917 59.2969 271.479 59.8021 271.938 60.375C272.406 60.9375 272.745 61.5885 272.953 62.3281C273.172 63.0677 273.25 63.9115 273.188 64.8594C273.104 65.9115 272.849 66.8385 272.422 67.6406C272.005 68.4427 271.453 69.125 270.766 69.6875C270.078 70.2396 269.292 70.6562 268.406 70.9375C267.521 71.2188 266.573 71.349 265.562 71.3281C264.479 71.2969 263.51 71.0938 262.656 70.7188C261.802 70.3333 261.083 69.8073 260.5 69.1406C259.927 68.4635 259.5 67.6719 259.219 66.7656C258.938 65.849 258.828 64.8646 258.891 63.8125L263.344 63.8281C263.312 64.3177 263.318 64.7917 263.359 65.25C263.401 65.7083 263.516 66.1094 263.703 66.4531C263.891 66.7969 264.161 67.0729 264.516 67.2812C264.87 67.4896 265.339 67.5938 265.922 67.5938C266.474 67.5938 266.948 67.4792 267.344 67.25C267.74 67.0104 268.057 66.6875 268.297 66.2812C268.536 65.875 268.693 65.4115 268.766 64.8906ZM292.844 57.8594L292.281 61.625C292.083 62.9062 291.755 64.1406 291.297 65.3281C290.839 66.5052 290.229 67.5469 289.469 68.4531C288.708 69.3594 287.786 70.0729 286.703 70.5938C285.62 71.1042 284.365 71.3438 282.938 71.3125C281.573 71.2812 280.432 70.9896 279.516 70.4375C278.609 69.8854 277.901 69.151 277.391 68.2344C276.88 67.3177 276.547 66.2917 276.391 65.1562C276.245 64.0104 276.245 62.8438 276.391 61.6562L276.953 57.875C277.151 56.5833 277.479 55.3438 277.938 54.1562C278.396 52.9583 279.005 51.8854 279.766 50.9375C280.536 49.9896 281.469 49.2448 282.562 48.7031C283.656 48.151 284.927 47.8958 286.375 47.9375C287.76 47.9688 288.906 48.276 289.812 48.8594C290.719 49.4427 291.422 50.2135 291.922 51.1719C292.422 52.1198 292.74 53.1771 292.875 54.3438C293.01 55.5 293 56.6719 292.844 57.8594ZM287.859 61.6562L288.406 57.7969C288.479 57.2656 288.531 56.6667 288.562 56C288.604 55.3229 288.568 54.6667 288.453 54.0312C288.339 53.3854 288.099 52.849 287.734 52.4219C287.37 51.9948 286.807 51.7656 286.047 51.7344C285.214 51.6927 284.516 51.8594 283.953 52.2344C283.401 52.6094 282.953 53.1146 282.609 53.75C282.266 54.375 282 55.0469 281.812 55.7656C281.635 56.4844 281.495 57.1719 281.391 57.8281L280.859 61.6719C280.786 62.2135 280.734 62.8125 280.703 63.4688C280.672 64.125 280.719 64.7604 280.844 65.375C280.979 65.9792 281.229 66.4844 281.594 66.8906C281.969 67.2865 282.536 67.5 283.297 67.5312C284.099 67.5729 284.771 67.4167 285.312 67.0625C285.854 66.6979 286.297 66.2188 286.641 65.625C286.984 65.0312 287.25 64.3854 287.438 63.6875C287.625 62.9792 287.766 62.3021 287.859 61.6562ZM310.516 61.0781H305.797L306.375 57.7656L310.031 57.7969C310.646 57.7865 311.188 57.6667 311.656 57.4375C312.125 57.1979 312.5 56.8594 312.781 56.4219C313.062 55.9844 313.245 55.4583 313.328 54.8438C313.401 54.3125 313.401 53.849 313.328 53.4531C313.266 53.0469 313.083 52.724 312.781 52.4844C312.49 52.2344 312.057 52.0938 311.484 52.0625L308.906 52.0469L305.625 71H301.156L305.078 48.25L311.672 48.2656C312.63 48.2865 313.505 48.4271 314.297 48.6875C315.089 48.9375 315.76 49.3177 316.312 49.8281C316.875 50.3281 317.297 50.9531 317.578 51.7031C317.859 52.4531 317.964 53.3385 317.891 54.3594C317.807 55.5156 317.495 56.4896 316.953 57.2812C316.422 58.0625 315.714 58.6719 314.828 59.1094C313.953 59.5469 312.964 59.7969 311.859 59.8594L310.516 61.0781ZM308.688 71H302.75L305.141 67.2344L308.906 67.25C309.521 67.2292 310.052 67.0833 310.5 66.8125C310.948 66.5417 311.302 66.1771 311.562 65.7188C311.823 65.25 311.995 64.7135 312.078 64.1094C312.141 63.6823 312.156 63.2448 312.125 62.7969C312.094 62.3385 311.964 61.9531 311.734 61.6406C311.505 61.3177 311.109 61.1354 310.547 61.0938L306.516 61.0781L307.125 57.7656L311.641 57.7812L312.406 59.0781C313.396 59.1094 314.198 59.3594 314.812 59.8281C315.438 60.2865 315.885 60.8906 316.156 61.6406C316.427 62.3906 316.526 63.2396 316.453 64.1875C316.359 65.6667 315.969 66.9167 315.281 67.9375C314.604 68.9479 313.698 69.7188 312.562 70.25C311.427 70.7708 310.135 71.0208 308.688 71ZM331.531 67.2188L330.859 71H321.672L322.328 67.2188H331.531ZM327 48.25L323.062 71H318.594L322.516 48.25H327ZM350.219 57.8594L349.656 61.625C349.458 62.9062 349.13 64.1406 348.672 65.3281C348.214 66.5052 347.604 67.5469 346.844 68.4531C346.083 69.3594 345.161 70.0729 344.078 70.5938C342.995 71.1042 341.74 71.3438 340.312 71.3125C338.948 71.2812 337.807 70.9896 336.891 70.4375C335.984 69.8854 335.276 69.151 334.766 68.2344C334.255 67.3177 333.922 66.2917 333.766 65.1562C333.62 64.0104 333.62 62.8438 333.766 61.6562L334.328 57.875C334.526 56.5833 334.854 55.3438 335.312 54.1562C335.771 52.9583 336.38 51.8854 337.141 50.9375C337.911 49.9896 338.844 49.2448 339.938 48.7031C341.031 48.151 342.302 47.8958 343.75 47.9375C345.135 47.9688 346.281 48.276 347.188 48.8594C348.094 49.4427 348.797 50.2135 349.297 51.1719C349.797 52.1198 350.115 53.1771 350.25 54.3438C350.385 55.5 350.375 56.6719 350.219 57.8594ZM345.234 61.6562L345.781 57.7969C345.854 57.2656 345.906 56.6667 345.938 56C345.979 55.3229 345.943 54.6667 345.828 54.0312C345.714 53.3854 345.474 52.849 345.109 52.4219C344.745 51.9948 344.182 51.7656 343.422 51.7344C342.589 51.6927 341.891 51.8594 341.328 52.2344C340.776 52.6094 340.328 53.1146 339.984 53.75C339.641 54.375 339.375 55.0469 339.188 55.7656C339.01 56.4844 338.87 57.1719 338.766 57.8281L338.234 61.6719C338.161 62.2135 338.109 62.8125 338.078 63.4688C338.047 64.125 338.094 64.7604 338.219 65.375C338.354 65.9792 338.604 66.4844 338.969 66.8906C339.344 67.2865 339.911 67.5 340.672 67.5312C341.474 67.5729 342.146 67.4167 342.688 67.0625C343.229 66.6979 343.672 66.2188 344.016 65.625C344.359 65.0312 344.625 64.3854 344.812 63.6875C345 62.9792 345.141 62.3021 345.234 61.6562ZM368.266 59.0469L366.844 68.4219C366.219 69.1198 365.484 69.6823 364.641 70.1094C363.797 70.5365 362.906 70.8438 361.969 71.0312C361.031 71.2292 360.109 71.3229 359.203 71.3125C357.807 71.2917 356.646 71.0052 355.719 70.4531C354.792 69.901 354.068 69.1667 353.547 68.25C353.036 67.3229 352.703 66.2865 352.547 65.1406C352.401 63.9948 352.406 62.8021 352.562 61.5625L353.156 57.6875C353.344 56.4062 353.661 55.1771 354.109 54C354.557 52.8229 355.151 51.7708 355.891 50.8438C356.63 49.9167 357.536 49.1927 358.609 48.6719C359.693 48.1406 360.958 47.8906 362.406 47.9219C363.99 47.9635 365.255 48.3021 366.203 48.9375C367.151 49.5625 367.844 50.4427 368.281 51.5781C368.719 52.7031 368.948 54.0052 368.969 55.4844H364.641C364.651 54.8385 364.604 54.2344 364.5 53.6719C364.396 53.099 364.172 52.6354 363.828 52.2812C363.484 51.9167 362.932 51.7188 362.172 51.6875C361.349 51.6562 360.661 51.8229 360.109 52.1875C359.568 52.5521 359.125 53.0312 358.781 53.625C358.438 54.2188 358.172 54.875 357.984 55.5938C357.807 56.3021 357.682 56.9896 357.609 57.6562L357.047 61.5781C356.974 62.1719 356.917 62.8073 356.875 63.4844C356.844 64.1615 356.896 64.8073 357.031 65.4219C357.177 66.026 357.453 66.526 357.859 66.9219C358.266 67.3073 358.87 67.5052 359.672 67.5156C360.036 67.5156 360.37 67.4844 360.672 67.4219C360.984 67.349 361.281 67.25 361.562 67.125C361.854 66.9896 362.146 66.8438 362.438 66.6875L363.266 62.5H360.078L360.688 59.0469H368.266Z" fill="#FF9601"/>
<defs>
<linearGradient id="paint0_linear_6_7" x1="640" y1="0" x2="640" y2="548" gradientUnits="userSpaceOnUse">
<stop stop-color="#3A3A3C"/>
<stop offset="1" stop-color="#0B0B0B"/>
</linearGradient>
</defs>
</svg>
