<svg width="14" height="12" viewBox="0 0 14 12" fill="none" xmlns="http://www.w3.org/2000/svg">
<path d="M1.49995 0H12.4999C12.7652 0 13.0195 0.105357 13.2071 0.292893C13.3946 0.48043 13.4999 0.734784 13.4999 1V10.925C13.5019 11.1163 13.448 11.304 13.3447 11.465C13.2414 11.626 13.0934 11.7533 12.9187 11.8313C12.789 11.8973 12.6455 11.9316 12.4999 11.9313C12.2641 11.9305 12.0361 11.8464 11.8562 11.6938L9.8687 10.025L1.49995 10C1.23473 10 0.980377 9.89464 0.792841 9.70711C0.605305 9.51957 0.499948 9.26522 0.499948 9V1C0.499948 0.734784 0.605305 0.48043 0.792841 0.292893C0.980377 0.105357 1.23473 0 1.49995 0ZM9.99995 5.75C10.1483 5.75 10.2933 5.70601 10.4166 5.6236C10.54 5.54119 10.6361 5.42406 10.6929 5.28701C10.7496 5.14997 10.7645 4.99917 10.7355 4.85368C10.7066 4.7082 10.6352 4.57456 10.5303 4.46967C10.4254 4.36478 10.2918 4.29335 10.1463 4.26441C10.0008 4.23547 9.84998 4.25033 9.71293 4.30709C9.57589 4.36386 9.45876 4.45999 9.37635 4.58332C9.29393 4.70666 9.24995 4.85166 9.24995 5C9.24995 5.19891 9.32896 5.38968 9.46962 5.53033C9.61027 5.67098 9.80103 5.75 9.99995 5.75ZM6.99995 5.75C7.14828 5.75 7.29329 5.70601 7.41663 5.6236C7.53996 5.54119 7.63609 5.42406 7.69286 5.28701C7.74962 5.14997 7.76448 4.99917 7.73554 4.85368C7.7066 4.7082 7.63517 4.57456 7.53028 4.46967C7.42539 4.36478 7.29175 4.29335 7.14627 4.26441C7.00078 4.23547 6.84998 4.25033 6.71294 4.30709C6.57589 4.36386 6.45876 4.45999 6.37635 4.58332C6.29393 4.70666 6.24995 4.85166 6.24995 5C6.24995 5.19891 6.32897 5.38968 6.46962 5.53033C6.61027 5.67098 6.80103 5.75 6.99995 5.75ZM3.99995 5.75C4.14828 5.75 4.29329 5.70601 4.41663 5.6236C4.53996 5.54119 4.63609 5.42406 4.69286 5.28701C4.74962 5.14997 4.76447 4.99917 4.73554 4.85368C4.7066 4.7082 4.63517 4.57456 4.53028 4.46967C4.42539 4.36478 4.29175 4.29335 4.14627 4.26441C4.00078 4.23547 3.84998 4.25033 3.71294 4.30709C3.57589 4.36386 3.45876 4.45999 3.37635 4.58332C3.29393 4.70666 3.24995 4.85166 3.24995 5C3.24995 5.19891 3.32897 5.38968 3.46962 5.53033C3.61027 5.67098 3.80103 5.75 3.99995 5.75Z" fill="#0B0B0B"/>
</svg>
