<svg width="22" height="22" viewBox="0 0 22 22" fill="none" xmlns="http://www.w3.org/2000/svg">
<path d="M11.4125 16.8781L16.1375 19.8781C16.7468 20.2625 17.4968 19.6906 17.3187 18.9875L15.95 13.6063C15.913 13.4571 15.9188 13.3005 15.9669 13.1546C16.015 13.0086 16.1034 12.8792 16.2218 12.7813L20.4593 9.2469C21.0125 8.78752 20.7312 7.8594 20.0093 7.81252L14.4781 7.45627C14.3272 7.44749 14.1821 7.39494 14.0605 7.30503C13.939 7.21513 13.8463 7.09177 13.7937 6.95002L11.7312 1.75627C11.6766 1.60618 11.5772 1.47653 11.4463 1.38491C11.3155 1.29329 11.1597 1.24414 11 1.24414C10.8403 1.24414 10.6844 1.29329 10.5536 1.38491C10.4228 1.47653 10.3233 1.60618 10.2687 1.75627L8.20622 6.95002C8.15365 7.09177 8.06093 7.21513 7.9394 7.30503C7.81786 7.39494 7.67276 7.44749 7.52184 7.45627L1.99059 7.81252C1.26872 7.8594 0.987465 8.78752 1.54059 9.2469L5.77809 12.7813C5.89653 12.8792 5.98489 13.0086 6.03299 13.1546C6.08109 13.3005 6.08698 13.4571 6.04997 13.6063L4.78434 18.5938C4.56872 19.4375 5.46872 20.1219 6.19059 19.6625L10.5875 16.8781C10.7108 16.7997 10.8539 16.7581 11 16.7581C11.1461 16.7581 11.2892 16.7997 11.4125 16.8781V16.8781Z" stroke="#9A9A9A" stroke-width="2" stroke-linecap="round" stroke-linejoin="round"/>
</svg>
