<svg width="160" height="160" viewBox="0 0 160 160" fill="none" xmlns="http://www.w3.org/2000/svg">
<path d="M80 157.49C90.4618 157.49 100.61 155.442 110.162 151.402C119.389 147.499 127.677 141.912 134.794 134.794C141.912 127.677 147.499 119.389 151.402 110.162C155.442 100.61 157.49 90.4622 157.49 80C157.49 69.5374 155.442 59.3895 151.402 49.8378C147.499 40.6105 141.912 32.3231 134.794 25.2063C127.677 18.0887 119.389 12.5011 110.162 8.59822C100.61 4.5581 90.4618 2.50917 80 2.50917C69.5382 2.50917 59.3895 4.5581 49.8383 8.59822C40.6105 12.5011 32.3231 18.0887 25.2063 25.2063C18.0883 32.3231 12.5007 40.6105 8.59822 49.8378C4.5581 59.3895 2.50917 69.5374 2.50917 80C2.50917 90.4622 4.5581 100.61 8.59822 110.162C12.5007 119.389 18.0883 127.677 25.2063 134.794C32.3231 141.912 40.6105 147.499 49.8383 151.402C59.3895 155.442 69.5382 157.49 80 157.49ZM80 160C35.817 160 0 124.183 0 80C0 35.8175 35.817 0 80 0C124.183 0 160 35.8175 160 80C160 124.183 124.183 160 80 160Z" fill="#F1F1F1"/>
<path d="M79.9999 154.363C90.0396 154.363 99.7776 152.397 108.945 148.52C117.801 144.774 125.754 139.413 132.583 132.583C139.413 125.753 144.775 117.801 148.52 108.946C152.397 99.7781 154.363 90.0393 154.363 80.0004C154.363 69.9607 152.397 60.2227 148.52 51.0549C144.775 42.1996 139.413 34.2466 132.583 27.4172C125.754 20.5875 117.801 15.2252 108.945 11.4799C99.7776 7.60264 90.0396 5.6362 79.9999 5.6362C69.9602 5.6362 60.2222 7.60264 51.0543 11.4799C42.1995 15.2252 34.2465 20.5875 27.4167 27.4172C20.587 34.2466 15.2252 42.1996 11.4794 51.0549C7.60213 60.2227 5.63613 69.9607 5.63613 80.0004C5.63613 90.0393 7.60213 99.7781 11.4794 108.946C15.2252 117.801 20.587 125.753 27.4167 132.583C34.2465 139.413 42.1995 144.774 51.0543 148.52C60.2222 152.397 69.9602 154.363 79.9999 154.363ZM79.9999 155.2C38.4681 155.2 4.79988 121.532 4.79988 80.0004C4.79988 38.4686 38.4681 4.80039 79.9999 4.80039C121.532 4.80039 155.2 38.4686 155.2 80.0004C155.2 121.532 121.532 155.2 79.9999 155.2Z" fill="#F1F1F1"/>
<path d="M31.3336 68.9549L29.7219 78.5748L26.1928 77.9834L27.6999 68.9866C27.7693 68.5711 27.6638 68.212 27.382 67.9085C27.1332 67.6398 26.7967 67.4696 26.3721 67.3983C25.9566 67.3289 25.598 67.3775 25.2949 67.5451C24.9497 67.7344 24.7409 68.0453 24.6684 68.479L23.1613 77.4759L19.3965 76.845L20.9035 67.8482C20.9747 67.4235 20.8853 67.0718 20.6348 66.7927C20.3834 66.5139 20.0608 66.3411 19.6656 66.2751C19.2432 66.2039 18.8715 66.256 18.5498 66.4292C18.1864 66.6246 17.9701 66.9303 17.9007 67.3449L16.3927 76.3413L12.8224 75.7434L14.4333 66.124C14.6729 64.6934 15.4184 63.637 16.6689 62.9553C17.8052 62.3396 19.0682 62.1477 20.4589 62.3809C21.0759 62.4846 21.6455 62.6722 22.1683 62.9444C22.6911 63.2176 23.1309 63.5636 23.4861 63.983C23.9862 63.7169 24.5272 63.5445 25.1095 63.4655C25.6917 63.3878 26.2966 63.4016 26.924 63.5067C28.3086 63.7386 29.4253 64.3191 30.2746 65.2487C31.2215 66.2803 31.575 67.5156 31.3336 68.9549ZM35.6776 57.099C34.7111 59.0315 33.4607 60.3206 31.9258 60.9658C30.7214 61.4725 29.3706 61.5815 27.874 61.2932C26.8914 61.1057 25.8945 60.7587 24.8824 60.2529C24.6488 60.1357 24.4847 60.051 24.39 59.9993C24.2963 59.9464 24.2159 59.8934 24.1486 59.8391L16.9498 56.2397L18.6444 52.8504L25.8415 56.449C27.1376 57.0964 28.3642 57.3703 29.5226 57.2692C30.856 57.1519 31.7995 56.5406 32.3513 55.4352L35.4071 49.3227L38.7339 50.9856L35.6776 57.099ZM48.0042 41.2324L35.4531 35.1885C35.3333 35.1095 35.2148 35.1308 35.0967 35.2515C34.9851 35.3644 34.9534 35.4977 35.0007 35.6492L41.3498 48.0136L38.4699 50.9487C38.0526 50.2114 37.2502 48.7187 36.0606 46.4705C34.8718 44.2231 33.7611 42.0808 32.7299 40.0471C31.5841 37.7819 30.9767 36.4911 30.9072 36.1737C30.8026 35.5988 30.8864 34.9931 31.1577 34.3558C31.43 33.7175 31.8311 33.1287 32.3622 32.5873C32.8927 32.0463 33.4724 31.636 34.1019 31.3555C34.7311 31.0755 35.3333 30.9817 35.9099 31.0755C36.2551 31.125 37.5568 31.6955 39.8167 32.7853C41.2057 33.4539 43.3593 34.5316 46.2779 36.0187C48.0528 36.9218 49.5751 37.6947 50.8451 38.3373L48.0042 41.2324ZM51.1768 32.6042C52.1611 33.2533 53.049 33.3567 53.8414 32.9142L60.6056 29.1377L62.4184 32.385L55.1032 36.4694C53.3464 37.4493 51.532 37.4619 49.6589 36.5054C47.9786 35.6449 46.577 34.2112 45.4564 32.203C44.3171 30.1624 43.8117 28.1647 43.9415 26.2078C44.0822 24.0412 45.0179 22.4751 46.7503 21.5073L54.065 17.4237L55.83 20.585L49.0667 24.3616C48.2499 24.8171 47.8496 25.6077 47.867 26.7323C47.8831 27.7396 48.2096 28.8146 48.847 29.957C49.503 31.1315 50.2793 32.0137 51.1768 32.6042ZM76.5368 25.5309L77.3805 29.4829L65.8623 27.552L66.6782 31.382L62.9728 32.1718L59.396 15.4L63.1013 14.6097L63.974 18.6994L73.6977 12.2174L74.5556 16.2384L65.4082 22.667L65.5432 23.2974L76.5368 25.5309ZM102.151 19.3033L93.2622 17.2509C92.8605 17.1589 92.5097 17.2379 92.2067 17.488C91.904 17.7376 91.7056 18.068 91.6118 18.4758C91.5189 18.8756 91.5523 19.2417 91.7108 19.5738C91.8689 19.9064 92.158 20.1218 92.5775 20.2181L97.8146 21.4278C99.227 21.7539 100.222 22.5402 100.799 23.7876C101.318 24.9061 101.417 26.1626 101.094 27.5572C100.774 28.9427 100.135 30.0291 99.1754 30.8158C98.1107 31.6838 96.8724 31.9551 95.4592 31.6282L85.9279 29.4277L86.7489 25.8726L95.6789 27.9341C96.0618 28.0231 96.3983 27.935 96.6901 27.671C96.9814 27.407 97.1742 27.0696 97.2688 26.6598C97.3635 26.2495 97.3392 25.8769 97.1959 25.5409C97.0526 25.2057 96.7804 24.9912 96.3792 24.8983L91.1286 23.686C89.7062 23.3578 88.7019 22.5745 88.1136 21.3366C87.5826 20.2255 87.4771 18.9794 87.7962 17.5957C88.1118 16.2301 88.7518 15.1603 89.7188 14.3853C90.8008 13.5234 92.0482 13.2551 93.4615 13.5811L102.965 15.7751L102.151 19.3033ZM121.005 25.0993L118.941 28.6562L107.847 27.2789L107.523 27.8369L114.172 36.8732L112.144 40.3688L104.902 31.2044L102.937 34.5911L99.6604 32.6889L108.269 17.8566L111.546 19.7592L109.447 23.3764L121.005 25.0993ZM120.419 43.0091C121.07 43.7069 121.793 44.1315 122.589 44.2852C123.476 44.4541 124.258 44.2231 124.934 43.5914L132.514 36.5072L134.976 39.1422L126.944 46.6489C125.497 48.0027 123.818 48.5203 121.91 48.2038C120.186 47.9198 118.64 47.0471 117.274 45.5843C115.945 44.1628 115.209 42.6088 115.067 40.9233C114.904 39.0385 115.558 37.4103 117.027 36.0378L125.058 28.5307L127.597 31.2478L120.019 38.3316C119.362 38.9438 119.099 39.7154 119.227 40.6463C119.344 41.4973 119.742 42.2845 120.419 43.0091ZM132.629 50.742C131.329 51.3803 130.368 52.19 129.747 53.1726C129.032 54.3054 128.947 55.426 129.491 56.5345L132.503 62.6696L129.164 64.3082L126.153 58.1732C125.201 56.2328 124.932 54.4569 125.349 52.8452C125.676 51.5804 126.408 50.4394 127.543 49.4234C128.288 48.7556 129.169 48.1725 130.184 47.674C130.419 47.5586 130.586 47.4791 130.685 47.4365C130.783 47.3936 130.874 47.3619 130.958 47.3415L138.183 43.795L139.853 47.196L132.629 50.742ZM138.907 67.1791C137.477 67.4075 136.32 67.9003 135.438 68.6575C134.423 69.5302 134.013 70.5766 134.208 71.7962L135.287 78.5448L131.615 79.1319L130.536 72.3837C130.194 70.2492 130.459 68.473 131.33 67.0549C132.014 65.9408 133.048 65.0646 134.432 64.4272C135.34 64.0065 136.353 63.7077 137.469 63.5293C137.728 63.4872 137.911 63.4603 138.017 63.4485C138.124 63.4364 138.221 63.432 138.307 63.4377L146.255 62.1664L146.853 65.9082L138.907 67.1791Z" fill="#F1F1F1"/>
<path d="M24.6353 102.195L25.1212 103.758L20.0481 105.335L19.5623 103.772L21.573 103.147L21.118 101.683L19.1064 102.309L18.621 100.746L23.694 99.167L24.1803 100.731L22.4179 101.279L22.873 102.743L24.6353 102.195ZM26.7724 110.986L25.614 108.48L25.0122 108.758L26.0651 111.034L24.9167 111.565L23.8647 109.289L23.2633 109.567L24.4569 112.146L23.2203 112.718L21.3407 108.652L26.1624 106.423L28.0081 110.414L26.7724 110.986ZM27.4997 119.932L26.5966 118.496L27.1206 117.903L26.2219 116.472L25.4529 116.675L24.5785 115.282L30.1178 114.113L30.9688 115.469L27.4997 119.932ZM29.0358 115.733L27.3764 116.17L27.9109 117.02L29.0432 115.746L29.0358 115.733ZM35.1323 121.106L36.193 122.41L31.0235 124.475L29.869 123.055L32.9913 118.474L34.0333 119.755L32.0834 122.463L32.0925 122.475L35.1323 121.106ZM41.1267 127.34L37.4235 128.423L36.0606 129.828L34.8852 128.689L36.2481 127.284L37.2433 123.575L38.5419 124.833L37.8147 126.854L39.8393 126.092L41.1267 127.34ZM49.2985 135.201L47.9933 134.37C48.1258 134.216 48.1223 134.055 48.058 133.908C47.9968 133.754 47.8592 133.623 47.7211 133.535C47.5327 133.415 47.1936 133.27 47.0334 133.521C46.8549 133.857 47.4515 134.334 47.9734 134.913C48.4961 135.493 48.936 136.187 48.4123 137.01C47.669 138.177 46.3556 137.871 45.3574 137.236C44.849 136.912 43.5143 135.807 44.413 134.368L45.7946 135.246C45.7225 135.36 45.6774 135.472 45.657 135.574C45.5849 135.907 45.8506 136.156 46.1085 136.32C46.3339 136.463 46.7277 136.607 46.9396 136.275C47.0872 136.043 46.9322 135.856 46.3004 135.145C45.7182 134.492 45.0322 133.782 45.6075 132.878C46.267 131.842 47.4363 131.96 48.3585 132.547C49.3319 133.166 49.9563 134.084 49.2985 135.201ZM56.005 138.816C55.454 139.979 54.415 140.153 53.3126 139.631L52.4381 139.216L51.7495 140.668L50.2702 139.967L52.548 135.166L55.0215 136.34C56.3267 136.959 56.3306 138.13 56.005 138.816ZM54.1019 137.41L53.4433 137.098L52.9809 138.073L53.5523 138.344C53.9352 138.526 54.3516 138.69 54.5808 138.206C54.7888 137.769 54.4653 137.583 54.1019 137.41ZM63.2529 142.215C62.7575 143.76 61.3755 144.535 59.8384 144.042C58.3005 143.55 57.6275 142.115 58.1225 140.57C58.6188 139.025 60.0008 138.25 61.5378 138.742C63.0757 139.236 63.7487 140.671 63.2529 142.215ZM61.1336 140.004C60.7363 139.876 60.0434 139.943 59.6817 141.07C59.3204 142.197 59.8458 142.654 60.2427 142.782C60.6391 142.909 61.3329 142.842 61.6946 141.715C62.0558 140.588 61.5305 140.131 61.1336 140.004ZM71.1699 142.643C71.0743 143.185 70.7239 143.713 70.1543 143.816C70.5642 144.062 70.7491 144.594 70.6931 145.256C70.6697 145.517 70.5663 146.141 70.6705 146.409L69.0584 146.124C69.0241 145.846 69.0428 145.569 69.0688 145.294C69.1131 144.788 69.1609 144.261 68.5235 144.148L67.6664 143.996L67.3438 145.82L65.7321 145.536L66.6569 140.305L69.7271 140.846C70.6428 141.009 71.3448 141.654 71.1699 142.643ZM68.8031 141.968L68.0485 141.835L67.8648 142.875L68.7071 143.024C69.0076 143.077 69.4275 143.098 69.51 142.63C69.5681 142.3 69.4188 142.077 68.8031 141.968ZM78.1876 142.985L76.7018 142.908L76.4982 146.853L74.8631 146.77L75.0676 142.823L73.5805 142.746L73.6508 141.387L78.258 141.624L78.1876 142.985ZM83.2407 146.874C82.6394 146.915 80.9096 146.819 80.7771 145.127L82.4106 145.014C82.4197 145.148 82.4509 145.265 82.4943 145.359C82.635 145.67 82.9963 145.712 83.3011 145.691C83.5681 145.673 83.9702 145.556 83.9437 145.162C83.9241 144.887 83.6888 144.829 82.7575 144.632C81.9021 144.453 80.9287 144.288 80.8549 143.219C80.7702 141.994 81.7805 141.394 82.8721 141.319C84.0231 141.24 85.0708 141.608 85.2041 142.896L83.6593 143.003C83.6758 142.801 83.5776 142.673 83.4374 142.593C83.2976 142.506 83.1092 142.482 82.9459 142.493C82.7232 142.508 82.3637 142.593 82.3836 142.889C82.4401 143.267 83.2029 143.296 83.9671 143.452C84.7308 143.608 85.4976 143.906 85.5654 144.879C85.66 146.259 84.4213 146.793 83.2407 146.874ZM96.9176 144.279L94.5544 141.934L94.5405 141.938L95.3363 144.731L93.8475 145.154L92.3908 140.044L94.0008 139.585L96.2694 141.895L96.2837 141.891L95.5035 139.157L96.9923 138.732L98.4499 143.843L96.9176 144.279ZM104.066 141.783C102.579 142.434 101.56 142.109 100.969 140.759L99.6621 137.774L101.161 137.118L102.322 139.769C102.54 140.267 102.812 140.886 103.541 140.568C104.25 140.257 103.978 139.637 103.76 139.139L102.599 136.488L104.098 135.831L105.406 138.816C105.997 140.165 105.551 141.133 104.066 141.783ZM111.836 137.56L110.434 138.405L108.395 135.02L107.12 135.789L106.418 134.621L110.369 132.242L111.072 133.407L109.797 134.176L111.836 137.56ZM118.435 132.853C118.206 132.693 118.011 132.496 117.824 132.293C117.475 131.924 117.113 131.537 116.604 131.937L115.921 132.477L117.069 133.932L115.784 134.946L112.493 130.776L114.939 128.844C115.67 128.268 116.619 128.173 117.242 128.961C117.582 129.393 117.743 130.006 117.441 130.5C117.898 130.358 118.419 130.573 118.875 131.056C119.054 131.246 119.452 131.738 119.72 131.839L118.435 132.853ZM116.127 130.192C115.92 129.929 115.653 129.892 115.163 130.28L114.561 130.754L115.216 131.583L115.887 131.054C116.127 130.864 116.421 130.565 116.127 130.192ZM121.981 129.722L118.27 125.919L119.442 124.776L123.153 128.578L121.981 129.722ZM127.418 123.85L126.368 125.106L123.336 122.572L122.381 123.714L121.336 122.841L124.295 119.3L125.34 120.174L124.386 121.316L127.418 123.85ZM130.266 120.067L125.866 117.089L126.783 115.734L131.183 118.712L130.266 120.067ZM134.355 113.576C133.603 115.004 132.073 115.418 130.638 114.662C129.203 113.906 128.679 112.41 129.432 110.982C130.184 109.554 131.714 109.141 133.148 109.896C134.583 110.653 135.107 112.148 134.355 113.576ZM132.386 111.345C131.339 110.793 130.797 111.231 130.604 111.6C130.409 111.968 130.354 112.662 131.401 113.214C132.447 113.766 132.99 113.328 133.184 112.959C133.378 112.59 133.432 111.896 132.386 111.345ZM137.946 105.023L134.662 105.563L134.657 105.577L137.384 106.568L136.855 108.023L131.862 106.208L132.435 104.635L135.635 104.151L135.64 104.137L132.968 103.166L133.497 101.712L138.489 103.527L137.946 105.023Z" fill="#F1F1F1"/>
<path d="M122.32 94.8849C119.602 92.2602 119.471 89.0777 120.383 85.4596C120.746 84.0189 121.472 73.6136 121.472 73.2454C121.472 71.4266 121.581 67.7872 121.327 66.0948C120.242 58.8859 118.429 57.2708 114.294 53.1356C110.39 49.2322 104.961 46.6067 99.7356 44.7084C98.1621 44.1366 96.5335 43.7167 94.9244 43.2513C89.7979 41.7694 84.1318 41.4971 79.9597 41.4746H79.9566C75.7845 41.4971 70.1188 41.7694 64.9919 43.2513C63.3828 43.7167 61.7542 44.1366 60.1807 44.7084C54.9557 46.6067 49.5261 49.2322 45.6228 53.1356C41.4876 57.2708 39.674 58.8859 38.5894 66.0948C38.335 67.7872 39.1703 84.0189 39.5333 85.4596C40.4455 89.0777 40.314 92.2602 37.5964 94.8849C36.7706 95.6825 36.7675 96.4415 37.17 97.3932C37.8495 98.9989 38.2103 102.571 39.1534 104.035C40.1764 105.625 42.4354 107.149 43.3616 107.752C43.7671 108.016 45.3302 108.862 45.7092 109.029C46.3171 109.296 51.312 109.862 52.0206 109.862C52.6744 109.862 59.8485 110.632 59.8485 114.052C59.8485 116.208 59.5259 116.645 59.9896 118.789C60.1638 119.595 61.1685 123.29 61.1151 123.471C61.0777 123.596 61.0708 125.143 61.066 125.273C61.0512 125.671 61.0604 126.076 61.1763 126.457C61.2922 126.839 61.5258 127.198 61.8736 127.393C62.2878 127.625 63.0937 127.597 63.5669 127.554C63.7532 127.537 63.9494 127.515 64.1005 127.405C64.1921 127.338 64.269 125.07 64.3702 123.968C64.4171 123.456 64.5326 123.668 64.5434 123.616C64.5504 123.637 64.6823 123.492 64.7371 124.018C64.8456 125.058 64.9138 127.13 64.9472 127.159C65.0488 127.249 65.1947 127.262 65.3302 127.271C65.6428 127.291 66.1707 127.307 66.4504 127.166C66.5724 127.103 66.6787 127.014 66.8003 126.95C67.0669 126.81 67.1794 126.806 67.4729 126.738C67.5632 126.717 67.6552 126.688 67.7238 126.625C67.7998 126.555 67.8367 126.453 67.8571 126.351C67.8953 126.162 67.9457 125.963 67.8884 125.778C67.8662 125.708 67.769 123.906 67.7894 122.917C67.8011 122.328 67.9401 122.361 67.9262 122.302C67.9531 122.396 68.0121 122.368 68.0812 122.934C68.2062 123.961 68.3647 125.833 68.4259 126.067C68.4507 126.159 68.4142 126.264 68.4615 126.347C68.5288 126.467 68.6869 126.513 68.8262 126.499C68.9656 126.484 69.0937 126.421 69.2235 126.37C69.5518 126.24 69.7072 126.181 70.0611 126.198C70.4049 126.214 70.573 126.296 70.8739 126.133C71.1526 125.982 71.2859 125.654 71.2933 125.345C71.2959 125.233 71.2555 123.67 71.3081 122.834C71.3458 122.233 71.4865 122.291 71.4678 122.213C71.4982 122.208 71.5208 122.484 71.5269 122.534C71.5694 122.879 71.8412 125.632 72.107 125.857C72.3705 126.08 72.7487 126.089 73.0943 126.086C73.5684 126.082 73.6375 126.079 74.1116 126.075C74.2536 126.074 74.3986 126.072 74.5328 126.024C74.6617 125.978 74.7729 125.892 74.868 125.793C75.1172 125.535 75.2726 123.344 75.4103 122.25C75.4736 121.748 75.5961 122.016 75.6109 121.849C75.6143 121.954 75.722 121.788 75.7606 122.317C75.8284 123.242 75.844 125.048 75.857 125.231C75.8675 125.373 75.8857 125.529 75.9929 125.625C76.0624 125.688 76.1575 125.714 76.2504 125.731C76.9529 125.852 77.8708 125.487 78.5764 125.59C78.8673 125.633 79.1564 125.755 79.4452 125.7C79.6471 125.662 79.6996 123.661 79.7799 122.534C79.8216 121.941 79.9358 121.894 79.9432 121.842C80.1116 121.686 80.0565 122.419 80.0635 122.6C80.0847 122.749 80.1633 125.642 80.4712 125.7C80.7599 125.755 81.0491 125.633 81.34 125.59C82.0455 125.487 82.9634 125.852 83.6659 125.731C83.7588 125.714 83.8543 125.688 83.9234 125.625C84.0306 125.529 84.0489 125.373 84.0593 125.231C84.0723 125.05 84.0649 123.32 84.1322 122.4C84.1722 121.857 84.302 121.956 84.3059 121.849C84.3207 122.02 84.3649 121.851 84.4301 122.367C84.5686 123.458 84.8013 125.537 85.0484 125.793C85.1434 125.892 85.2546 125.978 85.3836 126.024C85.5177 126.072 85.6627 126.074 85.8051 126.075C86.2788 126.079 86.3483 126.082 86.822 126.086C87.1676 126.089 87.5458 126.08 87.8094 125.857C87.973 125.718 88.0868 123.734 88.2184 122.717C88.3 122.082 88.4368 122.211 88.4485 122.213C88.4307 122.288 88.4541 122.146 88.4897 122.717C88.5423 123.568 88.6204 125.23 88.623 125.345C88.6304 125.654 88.7637 125.982 89.0425 126.133C89.3433 126.296 89.5114 126.214 89.8553 126.198C90.2091 126.181 90.3646 126.24 90.6928 126.37C90.8226 126.421 90.9507 126.484 91.0901 126.499C91.2299 126.513 91.3879 126.467 91.4548 126.347C91.5021 126.264 91.4657 126.159 91.49 126.067C91.5469 125.853 91.6845 123.954 91.803 122.967C91.8855 122.283 91.9589 122.41 91.9902 122.302C91.9745 122.368 92.0891 122.344 92.1039 123.034C92.1243 123.981 92.0483 125.713 92.0284 125.778C91.9706 125.963 92.021 126.162 92.0592 126.351C92.0796 126.453 92.1165 126.555 92.1929 126.625C92.2611 126.688 92.3531 126.717 92.4434 126.738C92.737 126.806 92.8498 126.81 93.1164 126.95C93.2376 127.014 93.3439 127.103 93.466 127.166C93.7456 127.307 94.2735 127.291 94.5862 127.271C94.7216 127.262 94.8675 127.249 94.9691 127.159C95.0021 127.131 95.0811 125.223 95.1893 124.185C95.247 123.63 95.3655 123.637 95.3729 123.616C95.3842 123.669 95.5231 123.526 95.5726 124.068C95.6742 125.17 95.7259 127.34 95.8158 127.405C95.9669 127.515 96.1631 127.537 96.3494 127.554C96.8227 127.597 97.6285 127.625 98.0432 127.393C98.3905 127.198 98.6245 126.839 98.7405 126.457C98.856 126.076 98.8651 125.671 98.8508 125.273C98.846 125.143 98.8382 123.596 98.8017 123.471C98.7483 123.29 99.7526 119.595 99.9271 118.789C100.391 116.645 100.068 116.208 100.068 114.052C100.068 110.632 107.107 109.862 107.896 109.862C108.628 109.862 113.599 109.296 114.207 109.029C114.586 108.862 116.149 108.016 116.555 107.752C117.481 107.149 119.624 105.674 120.763 104.035C121.757 102.605 122.067 98.9989 122.746 97.3932C123.149 96.4415 123.146 95.6825 122.32 94.8849ZM85.8099 109.006C85.7131 109.581 85.1495 110.309 84.6211 110.528C83.8539 110.845 82.9773 110.649 82.3933 109.839C81.9821 109.269 81.4841 108.763 81.043 108.214C80.0335 106.959 79.8351 106.969 78.8738 108.214C78.4431 108.772 77.9342 109.269 77.523 109.839C76.939 110.649 76.0624 110.845 75.2952 110.528C74.7668 110.309 74.2037 109.581 74.1068 109.006C73.3518 104.513 74.0751 100.205 76.253 96.2209C76.9972 94.8593 77.4996 93.1052 79.2033 92.3953C79.4486 92.2928 79.7035 92.2246 79.9579 92.189C80.2124 92.2242 80.4672 92.2928 80.713 92.3953C82.1914 93.011 83.1444 95.1524 83.6633 96.1015C85.8412 100.086 86.5645 104.513 85.8099 109.006ZM82.6838 90.6854C82.6838 90.088 84.3337 88.5453 86.2259 89.2131C86.8958 89.4497 89.2821 89.4141 89.7875 89.3525C90.6233 89.2509 91.6293 88.8658 92.2572 88.4407C94.683 86.7986 94.5302 86.3492 96.6968 84.3923C99.3444 82.0008 101.67 79.2559 104.229 76.7619C105.311 75.7081 106.568 74.7876 107.873 74.0256C108.812 73.4773 112.144 73.1785 113.227 72.9745C114.459 72.7422 115.497 73.2988 115.443 74.5732C115.381 76.052 115.289 77.5712 114.898 78.9867C113.737 83.1883 112.817 88.2249 110.421 91.8834C110.175 92.2598 108.905 93.4851 108.513 93.7304C106.512 94.9835 104.711 96.164 102.471 96.7298C102.166 96.8071 100.383 95.8219 99.9714 95.6578C96.738 94.3661 94.8115 94.225 91.3588 93.9223C90.7623 93.8702 85.3349 92.3249 82.6838 90.6854ZM77.2321 90.6854C74.581 92.3249 69.154 93.8702 68.557 93.9223C65.1048 94.225 63.1783 94.3661 59.9449 95.6578C59.5337 95.8219 57.751 96.8071 57.4449 96.7298C55.2049 96.164 53.4039 94.9835 51.4031 93.7304C51.0111 93.4851 49.7419 92.2598 49.4953 91.8834C47.0995 88.2249 46.179 83.1883 45.0184 78.9867C44.6276 77.5712 44.5356 76.052 44.4731 74.5732C44.4197 73.2988 45.4569 72.7422 46.6892 72.9745C47.7725 73.1785 51.1044 73.4773 52.0436 74.0256C53.3483 74.7876 54.6053 75.7081 55.6873 76.7619C58.2468 79.2559 60.5719 82.0008 63.2196 84.3923C65.3862 86.3492 65.2333 86.7986 67.6591 88.4407C68.287 88.8658 69.293 89.2509 70.1288 89.3525C70.6346 89.4141 73.0205 89.4497 73.6904 89.2131C75.5831 88.5453 77.2321 90.1553 77.2321 90.6854Z" fill="#F1F1F1"/>
<path d="M136.265 80.4311V78.8348H135.693V78.5434H137.168V78.8348H136.596V80.4311H136.265Z" fill="#F1F1F1"/>
<path d="M139.079 80.4311V78.9738L138.501 80.4311H138.36L137.78 78.9738V80.4311H137.449V78.5434H137.916L138.431 79.8397L138.943 78.5434H139.409V80.4311H139.079Z" fill="#F1F1F1"/>
</svg>
