<svg width="32" height="28" viewBox="0 0 32 28" fill="none" xmlns="http://www.w3.org/2000/svg">
<path d="M17.25 21.25H6.54375L3.92813 6.86875C3.89752 6.69653 3.80768 6.54042 3.67415 6.42743C3.54062 6.31444 3.37179 6.25168 3.19687 6.25H1.5" stroke="#9A9A9A" stroke-width="2" stroke-linecap="round" stroke-linejoin="round"/>
<path d="M7.5 25C8.53553 25 9.375 24.1605 9.375 23.125C9.375 22.0895 8.53553 21.25 7.5 21.25C6.46447 21.25 5.625 22.0895 5.625 23.125C5.625 24.1605 6.46447 25 7.5 25Z" stroke="#9A9A9A" stroke-width="2" stroke-linecap="round" stroke-linejoin="round"/>
<path d="M17.25 25C18.2855 25 19.125 24.1605 19.125 23.125C19.125 22.0895 18.2855 21.25 17.25 21.25C16.2145 21.25 15.375 22.0895 15.375 23.125C15.375 24.1605 16.2145 25 17.25 25Z" stroke="#9A9A9A" stroke-width="2" stroke-linecap="round" stroke-linejoin="round"/>
<path d="M5.85938 17.5H17.6344C17.985 17.5011 18.3247 17.3785 18.5939 17.1539C18.8631 16.9293 19.0445 16.617 19.1063 16.2719L20.25 10H4.5" stroke="#9A9A9A" stroke-width="2" stroke-linecap="round" stroke-linejoin="round"/>
<circle cx="24" cy="8" r="8" fill="#FF9601"/>
<path d="M21.2882 12.11C20.5549 12.11 19.9749 11.9067 19.5482 11.5C19.1216 11.0867 18.9082 10.5267 18.9082 9.82V7.18C18.9082 6.48667 19.1216 5.93667 19.5482 5.53C19.9749 5.12333 20.5549 4.92 21.2882 4.92C22.0216 4.92 22.6016 5.12333 23.0282 5.53C23.4616 5.93667 23.6782 6.48667 23.6782 7.18V9.82C23.6782 10.5267 23.4616 11.0867 23.0282 11.5C22.6016 11.9067 22.0216 12.11 21.2882 12.11ZM21.2882 10.9C21.5882 10.9 21.8249 10.81 21.9982 10.63C22.1782 10.4433 22.2682 10.1967 22.2682 9.89V7.14C22.2682 6.83333 22.1782 6.59 21.9982 6.41C21.8249 6.22333 21.5882 6.13 21.2882 6.13C20.9949 6.13 20.7582 6.22333 20.5782 6.41C20.4049 6.59 20.3182 6.83333 20.3182 7.14V9.89C20.3182 10.1967 20.4049 10.4433 20.5782 10.63C20.7582 10.81 20.9949 10.9 21.2882 10.9ZM28.9214 8.66C29.0547 8.96667 29.1214 9.32 29.1214 9.72C29.1214 10.08 29.0614 10.4133 28.9414 10.72C28.7814 11.1467 28.5114 11.48 28.1314 11.72C27.758 11.96 27.3147 12.08 26.8014 12.08C26.2947 12.08 25.848 11.9533 25.4614 11.7C25.0814 11.4467 24.808 11.1033 24.6414 10.67C24.548 10.41 24.4947 10.13 24.4814 9.83C24.4814 9.75 24.5214 9.71 24.6014 9.71H25.7814C25.8614 9.71 25.9014 9.75 25.9014 9.83C25.928 10.05 25.9647 10.2133 26.0114 10.32C26.0714 10.4933 26.168 10.63 26.3014 10.73C26.4414 10.8233 26.6047 10.87 26.7914 10.87C27.1647 10.87 27.4214 10.7067 27.5614 10.38C27.6547 10.18 27.7014 9.94667 27.7014 9.68C27.7014 9.36667 27.6514 9.11 27.5514 8.91C27.398 8.59667 27.1414 8.44 26.7814 8.44C26.708 8.44 26.6314 8.46333 26.5514 8.51C26.4714 8.55 26.3747 8.61 26.2614 8.69C26.2347 8.71 26.208 8.72 26.1814 8.72C26.1414 8.72 26.1114 8.7 26.0914 8.66L25.5014 7.83C25.488 7.81 25.4814 7.78667 25.4814 7.76C25.4814 7.72 25.4947 7.68667 25.5214 7.66L27.1114 6.27C27.1247 6.25667 27.128 6.24333 27.1214 6.23C27.1214 6.21667 27.1114 6.21 27.0914 6.21H24.7414C24.708 6.21 24.678 6.2 24.6514 6.18C24.6314 6.15333 24.6214 6.12333 24.6214 6.09V5.12C24.6214 5.08667 24.6314 5.06 24.6514 5.04C24.678 5.01333 24.708 5 24.7414 5H28.9114C28.9447 5 28.9714 5.01333 28.9914 5.04C29.018 5.06 29.0314 5.08667 29.0314 5.12V6.22C29.0314 6.27333 29.008 6.32333 28.9614 6.37L27.6514 7.57C27.638 7.58333 27.6314 7.59667 27.6314 7.61C27.638 7.62333 27.6547 7.63 27.6814 7.63C28.2614 7.74333 28.6747 8.08667 28.9214 8.66Z" fill="#0B0B0B"/>
</svg>
