<svg width="200" height="57" viewBox="0 0 200 57" fill="none" xmlns="http://www.w3.org/2000/svg">
<g clip-path="url(#clip0_18_22)">
<path d="M144 33C137.373 33 132 38.3732 132 45C132 51.6268 137.373 57 144 57C150.627 57 156 51.6268 156 45C156 38.3732 150.627 33 144 33ZM149.767 42.0455C149.775 42.1714 149.775 42.3027 149.775 42.4313C149.775 46.3634 146.78 50.8929 141.308 50.8929C139.621 50.8929 138.056 50.4027 136.738 49.5589C136.979 49.5857 137.21 49.5964 137.456 49.5964C138.849 49.5964 140.129 49.125 141.15 48.3268C139.843 48.3 138.745 47.4429 138.37 46.2643C138.828 46.3313 139.24 46.3313 139.712 46.2107C139.039 46.074 138.434 45.7084 138 45.1762C137.565 44.644 137.329 43.9779 137.33 43.2911V43.2536C137.724 43.4759 138.188 43.6125 138.672 43.6312C138.265 43.3596 137.931 42.9916 137.699 42.5599C137.468 42.1282 137.347 41.646 137.346 41.1563C137.346 40.6018 137.491 40.0955 137.751 39.6563C138.498 40.5759 139.43 41.3281 140.487 41.8638C141.544 42.3996 142.701 42.707 143.885 42.7661C143.464 40.7438 144.975 39.1071 146.791 39.1071C147.648 39.1071 148.42 39.4661 148.963 40.0446C149.636 39.9188 150.279 39.667 150.852 39.3295C150.629 40.0179 150.163 40.5991 149.545 40.9661C150.145 40.9018 150.723 40.7357 151.259 40.5027C150.854 41.0973 150.348 41.625 149.767 42.0455V42.0455Z" fill="white"/>
</g>
<g clip-path="url(#clip1_18_22)">
<path d="M24 45C24 38.3719 18.6281 33 12 33C5.37188 33 0 38.3719 0 45C0 51.6281 5.37188 57 12 57C12.0703 57 12.1406 57 12.2109 56.9953V47.6578H9.63281V44.6531H12.2109V42.4406C12.2109 39.8766 13.7766 38.4797 16.0641 38.4797C17.1609 38.4797 18.1031 38.5594 18.375 38.5969V41.2781H16.8C15.5578 41.2781 15.3141 41.8687 15.3141 42.7359V44.6484H18.2906L17.9016 47.6531H15.3141V56.5359C20.3297 55.0969 24 50.4797 24 45V45Z" fill="white"/>
</g>
<g clip-path="url(#clip2_18_22)">
<path d="M58.2969 45C58.2969 46.2686 57.2686 47.2969 56 47.2969C54.7314 47.2969 53.7031 46.2686 53.7031 45C53.7031 43.7314 54.7314 42.7031 56 42.7031C57.2686 42.7031 58.2969 43.7314 58.2969 45Z" fill="white"/>
<path d="M61.3716 40.9357C61.2612 40.6365 61.085 40.3657 60.8561 40.1434C60.6339 39.9146 60.3632 39.7384 60.0638 39.628C59.821 39.5337 59.4563 39.4214 58.7845 39.3909C58.0577 39.3577 57.8398 39.3506 56 39.3506C54.16 39.3506 53.9421 39.3575 53.2155 39.3907C52.5437 39.4214 52.1788 39.5337 51.9362 39.628C51.6368 39.7384 51.366 39.9146 51.1439 40.1434C50.915 40.3657 50.7388 40.6364 50.6282 40.9357C50.5339 41.1785 50.4217 41.5435 50.3911 42.2153C50.358 42.9418 50.3508 43.1597 50.3508 44.9998C50.3508 46.8396 50.358 47.0575 50.3911 47.7842C50.4217 48.4561 50.5339 48.8208 50.6282 49.0636C50.7388 49.363 50.9148 49.6336 51.1437 49.8559C51.366 50.0848 51.6366 50.2609 51.936 50.3713C52.1788 50.4658 52.5437 50.5781 53.2155 50.6086C53.9421 50.6418 54.1598 50.6487 55.9998 50.6487C57.84 50.6487 58.0579 50.6418 58.7843 50.6086C59.4561 50.5781 59.821 50.4658 60.0638 50.3713C60.6648 50.1395 61.1398 49.6646 61.3716 49.0636C61.4659 48.8208 61.5781 48.4561 61.6089 47.7842C61.642 47.0575 61.649 46.8396 61.649 44.9998C61.649 43.1597 61.642 42.9418 61.6089 42.2153C61.5783 41.5435 61.4661 41.1785 61.3716 40.9357V40.9357ZM56 48.5379C54.0457 48.5379 52.4615 46.9539 52.4615 44.9996C52.4615 43.0453 54.0457 41.4612 56 41.4612C57.9541 41.4612 59.5383 43.0453 59.5383 44.9996C59.5383 46.9539 57.9541 48.5379 56 48.5379ZM59.6782 42.1483C59.2216 42.1483 58.8513 41.778 58.8513 41.3214C58.8513 40.8647 59.2216 40.4944 59.6782 40.4944C60.1349 40.4944 60.5051 40.8647 60.5051 41.3214C60.5049 41.778 60.1349 42.1483 59.6782 42.1483Z" fill="white"/>
<path d="M56 33C49.3736 33 44 38.3736 44 45C44 51.6264 49.3736 57 56 57C62.6264 57 68 51.6264 68 45C68 38.3736 62.6264 33 56 33ZM62.8491 47.8409C62.8157 48.5744 62.6991 49.0752 62.5288 49.5135C62.1708 50.4391 61.4391 51.1708 60.5135 51.5288C60.0754 51.6991 59.5744 51.8156 58.8411 51.8491C58.1063 51.8826 57.8715 51.8906 56.0002 51.8906C54.1287 51.8906 53.8941 51.8826 53.1591 51.8491C52.4258 51.8156 51.9248 51.6991 51.4866 51.5288C51.0267 51.3558 50.6103 51.0846 50.2661 50.7339C49.9156 50.3899 49.6444 49.9733 49.4714 49.5135C49.3011 49.0754 49.1844 48.5744 49.1511 47.8411C49.1172 47.1061 49.1094 46.8713 49.1094 45C49.1094 43.1287 49.1172 42.8939 49.1509 42.1591C49.1843 41.4256 49.3007 40.9248 49.471 40.4865C49.644 40.0267 49.9154 39.6101 50.2661 39.2661C50.6101 38.9154 51.0267 38.6442 51.4865 38.4712C51.9248 38.3009 52.4256 38.1844 53.1591 38.1509C53.8939 38.1174 54.1287 38.1094 56 38.1094C57.8713 38.1094 58.1061 38.1174 58.8409 38.1511C59.5744 38.1844 60.0752 38.3009 60.5135 38.471C60.9733 38.644 61.3899 38.9154 61.7341 39.2661C62.0846 39.6103 62.356 40.0267 62.5288 40.4865C62.6993 40.9248 62.8157 41.4256 62.8492 42.1591C62.8828 42.8939 62.8906 43.1287 62.8906 45C62.8906 46.8713 62.8828 47.1061 62.8491 47.8409V47.8409Z" fill="white"/>
</g>
<g clip-path="url(#clip3_18_22)">
<path d="M98.5054 47.2483L102.409 45.0001L98.5054 42.752V47.2483Z" fill="white"/>
<path d="M100 33C93.3736 33 88 38.3736 88 45C88 51.6264 93.3736 57 100 57C106.626 57 112 51.6264 112 45C112 38.3736 106.626 33 100 33ZM107.498 45.0123C107.498 45.0123 107.498 47.4459 107.189 48.6194C107.016 49.2618 106.51 49.7682 105.868 49.9411C104.694 50.25 100 50.25 100 50.25C100 50.25 95.3182 50.25 94.1324 49.9288C93.4901 49.756 92.9836 49.2493 92.8105 48.607C92.5016 47.4459 92.5016 45 92.5016 45C92.5016 45 92.5016 42.5665 92.8105 41.393C92.9834 40.7507 93.5023 40.2318 94.1324 40.0589C95.3059 39.75 100 39.75 100 39.75C100 39.75 104.694 39.75 105.868 40.0712C106.51 40.244 107.016 40.7507 107.189 41.393C107.511 42.5665 107.498 45.0123 107.498 45.0123V45.0123Z" fill="white"/>
</g>
<g clip-path="url(#clip4_18_22)">
<path fill-rule="evenodd" clip-rule="evenodd" d="M188 57C194.627 57 200 51.6274 200 45C200 38.3726 194.627 33 188 33C181.373 33 176 38.3726 176 45C176 51.6274 181.373 57 188 57ZM190.228 38.0039C189.762 38.0045 189.296 38.005 188.828 38.0118L188.829 38.0123C188.817 39.516 188.817 41.0202 188.818 42.5261C188.819 43.3679 188.819 44.2102 188.817 45.0533C188.815 45.336 188.816 45.6184 188.816 45.9007C188.817 46.6602 188.817 47.4187 188.773 48.1794C188.766 48.3905 188.653 48.5761 188.543 48.7564C188.534 48.7708 188.526 48.7851 188.517 48.7994C188.154 49.3529 187.487 49.7309 186.791 49.7379C185.74 49.8249 184.756 49.0203 184.608 48.063C184.607 48.0161 184.605 47.9689 184.604 47.9215C184.593 47.6515 184.583 47.3762 184.693 47.1245C184.849 46.7062 185.148 46.3476 185.543 46.1038C186.084 45.7525 186.807 45.7 187.426 45.8872C187.426 45.5182 187.432 45.1494 187.439 44.7805C187.448 44.2857 187.457 43.7909 187.45 43.2958C186.096 43.0586 184.649 43.4594 183.617 44.3008C182.706 45.0231 182.119 46.085 182.007 47.195C181.996 47.4843 181.998 47.7739 182.014 48.063C182.143 49.4281 183.03 50.7 184.289 51.3948C185.049 51.8139 185.94 52.0414 186.831 51.9937C188.285 51.971 189.701 51.2416 190.516 50.1229C191.023 49.4509 191.311 48.6393 191.359 47.8237C191.372 46.7034 191.371 45.581 191.37 44.4572C191.37 43.8782 191.369 43.2988 191.371 42.7191C191.695 42.9173 192.026 43.1111 192.381 43.2617C193.197 43.6239 194.101 43.7989 195 43.8265V41.4774C194.04 41.3772 193.054 41.081 192.357 40.4339C191.658 39.8026 191.315 38.893 191.266 38C190.92 38.003 190.574 38.0034 190.228 38.0039Z" fill="white"/>
</g>
<path d="M79.4899 4.34C79.4899 4.24667 79.5366 4.2 79.6299 4.2H80.3439C80.4373 4.2 80.4839 4.24667 80.4839 4.34V13.86C80.4839 13.9533 80.4373 14 80.3439 14H79.6439C79.5786 14 79.5226 13.9673 79.4759 13.902L74.7019 6.132C74.6926 6.104 74.6786 6.09467 74.6599 6.104C74.6413 6.104 74.6319 6.118 74.6319 6.146L74.6459 13.86C74.6459 13.9533 74.5993 14 74.5059 14H73.7919C73.6986 14 73.6519 13.9533 73.6519 13.86V4.34C73.6519 4.24667 73.6986 4.2 73.7919 4.2H74.4919C74.5573 4.2 74.6133 4.23267 74.6599 4.298L79.4339 12.068C79.4433 12.096 79.4573 12.11 79.4759 12.11C79.4946 12.1007 79.5039 12.082 79.5039 12.054L79.4899 4.34ZM85.6189 14.112C84.9469 14.112 84.3682 13.9393 83.8829 13.594C83.3975 13.2487 83.0615 12.7727 82.8749 12.166C82.7442 11.7367 82.6789 11.1627 82.6789 10.444C82.6789 9.72533 82.7442 9.156 82.8749 8.736C83.0522 8.13867 83.3835 7.66733 83.8689 7.322C84.3542 6.97667 84.9422 6.804 85.6329 6.804C86.2955 6.804 86.8649 6.97667 87.3409 7.322C87.8262 7.66733 88.1575 8.134 88.3349 8.722C88.4655 9.12333 88.5309 9.69733 88.5309 10.444C88.5309 11.2 88.4655 11.774 88.3349 12.166C88.1575 12.7727 87.8262 13.2487 87.3409 13.594C86.8649 13.9393 86.2909 14.112 85.6189 14.112ZM85.6189 13.244C86.0669 13.244 86.4495 13.1227 86.7669 12.88C87.0842 12.628 87.2989 12.292 87.4109 11.872C87.4949 11.536 87.5369 11.0647 87.5369 10.458C87.5369 9.842 87.4995 9.37067 87.4249 9.044C87.3129 8.624 87.0935 8.29267 86.7669 8.05C86.4495 7.798 86.0622 7.672 85.6049 7.672C85.1475 7.672 84.7602 7.798 84.4429 8.05C84.1255 8.29267 83.9109 8.624 83.7989 9.044C83.7242 9.37067 83.6869 9.842 83.6869 10.458C83.6869 11.074 83.7242 11.5453 83.7989 11.872C83.9015 12.292 84.1115 12.628 84.4289 12.88C84.7555 13.1227 85.1522 13.244 85.6189 13.244ZM92.8698 14.07C92.3471 14.07 91.8804 13.986 91.4698 13.818C91.0684 13.65 90.7558 13.426 90.5318 13.146C90.3171 12.866 90.2098 12.5533 90.2098 12.208V12.04C90.2098 11.9467 90.2564 11.9 90.3498 11.9H91.0218C91.1151 11.9 91.1618 11.9467 91.1618 12.04V12.152C91.1618 12.46 91.3204 12.7307 91.6378 12.964C91.9644 13.188 92.3704 13.3 92.8558 13.3C93.3411 13.3 93.7331 13.1927 94.0318 12.978C94.3304 12.754 94.4798 12.474 94.4798 12.138C94.4798 11.9047 94.4004 11.7133 94.2418 11.564C94.0924 11.4147 93.9104 11.298 93.6958 11.214C93.4904 11.13 93.1684 11.0227 92.7298 10.892C92.2071 10.7427 91.7778 10.5933 91.4418 10.444C91.1058 10.2947 90.8211 10.0893 90.5878 9.828C90.3638 9.55733 90.2518 9.21667 90.2518 8.806C90.2518 8.20867 90.4851 7.73267 90.9518 7.378C91.4184 7.02333 92.0344 6.846 92.7998 6.846C93.3131 6.846 93.7658 6.93 94.1578 7.098C94.5591 7.266 94.8671 7.49933 95.0818 7.798C95.2964 8.08733 95.4038 8.414 95.4038 8.778V8.82C95.4038 8.91333 95.3571 8.96 95.2638 8.96H94.6058C94.5124 8.96 94.4658 8.91333 94.4658 8.82V8.778C94.4658 8.46067 94.3118 8.19467 94.0038 7.98C93.7051 7.76533 93.2991 7.658 92.7858 7.658C92.3098 7.658 91.9271 7.756 91.6378 7.952C91.3484 8.13867 91.2038 8.4 91.2038 8.736C91.2038 9.05333 91.3438 9.296 91.6238 9.464C91.9038 9.632 92.3378 9.8 92.9258 9.968C93.4671 10.1267 93.9058 10.276 94.2418 10.416C94.5778 10.556 94.8671 10.7613 95.1098 11.032C95.3524 11.2933 95.4738 11.6387 95.4738 12.068C95.4738 12.6747 95.2358 13.16 94.7598 13.524C94.2838 13.888 93.6538 14.07 92.8698 14.07ZM102.413 14.07C101.89 14.07 101.423 13.986 101.013 13.818C100.611 13.65 100.299 13.426 100.075 13.146C99.8601 12.866 99.7528 12.5533 99.7528 12.208V12.04C99.7528 11.9467 99.7994 11.9 99.8927 11.9H100.565C100.658 11.9 100.705 11.9467 100.705 12.04V12.152C100.705 12.46 100.863 12.7307 101.181 12.964C101.507 13.188 101.913 13.3 102.399 13.3C102.884 13.3 103.276 13.1927 103.575 12.978C103.873 12.754 104.023 12.474 104.023 12.138C104.023 11.9047 103.943 11.7133 103.785 11.564C103.635 11.4147 103.453 11.298 103.239 11.214C103.033 11.13 102.711 11.0227 102.273 10.892C101.75 10.7427 101.321 10.5933 100.985 10.444C100.649 10.2947 100.364 10.0893 100.131 9.828C99.9068 9.55733 99.7948 9.21667 99.7948 8.806C99.7948 8.20867 100.028 7.73267 100.495 7.378C100.961 7.02333 101.577 6.846 102.343 6.846C102.856 6.846 103.309 6.93 103.701 7.098C104.102 7.266 104.41 7.49933 104.625 7.798C104.839 8.08733 104.947 8.414 104.947 8.778V8.82C104.947 8.91333 104.9 8.96 104.807 8.96H104.149C104.055 8.96 104.009 8.91333 104.009 8.82V8.778C104.009 8.46067 103.855 8.19467 103.547 7.98C103.248 7.76533 102.842 7.658 102.329 7.658C101.853 7.658 101.47 7.756 101.181 7.952C100.891 8.13867 100.747 8.4 100.747 8.736C100.747 9.05333 100.887 9.296 101.167 9.464C101.447 9.632 101.881 9.8 102.469 9.968C103.01 10.1267 103.449 10.276 103.785 10.416C104.121 10.556 104.41 10.7613 104.653 11.032C104.895 11.2933 105.017 11.6387 105.017 12.068C105.017 12.6747 104.779 13.16 104.303 13.524C103.827 13.888 103.197 14.07 102.413 14.07ZM107.501 5.628C107.277 5.628 107.09 5.55333 106.941 5.404C106.792 5.25467 106.717 5.068 106.717 4.844C106.717 4.61067 106.792 4.424 106.941 4.284C107.09 4.13467 107.277 4.06 107.501 4.06C107.725 4.06 107.912 4.13467 108.061 4.284C108.21 4.424 108.285 4.61067 108.285 4.844C108.285 5.068 108.21 5.25467 108.061 5.404C107.912 5.55333 107.725 5.628 107.501 5.628ZM107.109 13.986C107.016 13.986 106.969 13.9393 106.969 13.846V7.042C106.969 6.94867 107.016 6.902 107.109 6.902H107.823C107.916 6.902 107.963 6.94867 107.963 7.042V13.846C107.963 13.9393 107.916 13.986 107.823 13.986H107.109ZM114.765 7.056C114.765 6.96267 114.812 6.916 114.905 6.916H115.619C115.713 6.916 115.759 6.96267 115.759 7.056V13.762C115.759 14.8073 115.456 15.5727 114.849 16.058C114.252 16.5433 113.426 16.786 112.371 16.786C112.157 16.786 111.993 16.7813 111.881 16.772C111.788 16.7627 111.741 16.7113 111.741 16.618L111.769 15.974C111.769 15.9273 111.783 15.89 111.811 15.862C111.839 15.8433 111.872 15.8387 111.909 15.848L112.287 15.862C113.155 15.862 113.785 15.6893 114.177 15.344C114.569 15.008 114.765 14.4713 114.765 13.734V13.216C114.765 13.1973 114.756 13.188 114.737 13.188C114.728 13.1787 114.714 13.1833 114.695 13.202C114.266 13.762 113.655 14.042 112.861 14.042C112.255 14.042 111.713 13.8787 111.237 13.552C110.771 13.2253 110.458 12.7633 110.299 12.166C110.187 11.7833 110.131 11.214 110.131 10.458C110.131 10.0473 110.141 9.702 110.159 9.422C110.187 9.142 110.239 8.89 110.313 8.666C110.481 8.106 110.785 7.658 111.223 7.322C111.662 6.97667 112.189 6.804 112.805 6.804C113.636 6.804 114.266 7.07933 114.695 7.63C114.714 7.64867 114.728 7.65333 114.737 7.644C114.756 7.63467 114.765 7.62067 114.765 7.602V7.056ZM114.695 11.858C114.723 11.718 114.742 11.5453 114.751 11.34C114.761 11.1347 114.765 10.836 114.765 10.444C114.765 9.968 114.761 9.65067 114.751 9.492C114.742 9.324 114.719 9.17 114.681 9.03C114.607 8.638 114.42 8.316 114.121 8.064C113.832 7.80267 113.463 7.672 113.015 7.672C112.577 7.672 112.203 7.798 111.895 8.05C111.597 8.302 111.387 8.62867 111.265 9.03C111.172 9.32867 111.125 9.79533 111.125 10.43C111.125 11.1113 111.172 11.5827 111.265 11.844C111.359 12.236 111.559 12.5627 111.867 12.824C112.185 13.076 112.567 13.202 113.015 13.202C113.473 13.202 113.846 13.076 114.135 12.824C114.434 12.572 114.621 12.25 114.695 11.858ZM120.34 6.804C121.18 6.804 121.828 7.01867 122.286 7.448C122.743 7.87733 122.972 8.44667 122.972 9.156V13.86C122.972 13.9533 122.925 14 122.832 14H122.118C122.024 14 121.978 13.9533 121.978 13.86V13.286C121.978 13.2673 121.968 13.2533 121.95 13.244C121.94 13.2347 121.926 13.2393 121.908 13.258C121.674 13.538 121.371 13.7527 120.998 13.902C120.624 14.042 120.209 14.112 119.752 14.112C119.089 14.112 118.534 13.944 118.086 13.608C117.638 13.272 117.414 12.7587 117.414 12.068C117.414 11.368 117.666 10.8173 118.17 10.416C118.683 10.0053 119.392 9.8 120.298 9.8H121.922C121.959 9.8 121.978 9.78133 121.978 9.744V9.212C121.978 8.736 121.842 8.36267 121.572 8.092C121.31 7.812 120.9 7.672 120.34 7.672C119.892 7.672 119.528 7.76067 119.248 7.938C118.968 8.106 118.795 8.344 118.73 8.652C118.702 8.74533 118.646 8.78733 118.562 8.778L117.806 8.68C117.703 8.66133 117.661 8.624 117.68 8.568C117.754 8.04533 118.034 7.62067 118.52 7.294C119.005 6.96733 119.612 6.804 120.34 6.804ZM119.948 13.258C120.498 13.258 120.974 13.1227 121.376 12.852C121.777 12.572 121.978 12.1987 121.978 11.732V10.64C121.978 10.6027 121.959 10.584 121.922 10.584H120.452C119.836 10.584 119.341 10.71 118.968 10.962C118.594 11.214 118.408 11.564 118.408 12.012C118.408 12.4227 118.548 12.7353 118.828 12.95C119.117 13.1553 119.49 13.258 119.948 13.258ZM126.286 9.1C126.053 9.1 125.861 9.02533 125.712 8.876C125.572 8.72667 125.502 8.54 125.502 8.316C125.502 8.08267 125.572 7.896 125.712 7.756C125.861 7.60667 126.053 7.532 126.286 7.532C126.51 7.532 126.697 7.60667 126.846 7.756C126.995 7.896 127.07 8.08267 127.07 8.316C127.07 8.54 126.995 8.72667 126.846 8.876C126.697 9.02533 126.51 9.1 126.286 9.1ZM126.286 13.818C126.053 13.818 125.861 13.7433 125.712 13.594C125.572 13.4447 125.502 13.258 125.502 13.034C125.502 12.8007 125.572 12.614 125.712 12.474C125.861 12.3247 126.053 12.25 126.286 12.25C126.51 12.25 126.697 12.3247 126.846 12.474C126.995 12.614 127.07 12.8007 127.07 13.034C127.07 13.258 126.995 13.4447 126.846 13.594C126.697 13.7433 126.51 13.818 126.286 13.818Z" fill="white"/>
<defs>
<clipPath id="clip0_18_22">
<rect width="24" height="24" fill="white" transform="translate(132 33)"/>
</clipPath>
<clipPath id="clip1_18_22">
<rect width="24" height="24" fill="white" transform="translate(0 33)"/>
</clipPath>
<clipPath id="clip2_18_22">
<rect width="24" height="24" fill="white" transform="translate(44 33)"/>
</clipPath>
<clipPath id="clip3_18_22">
<rect width="24" height="24" fill="white" transform="translate(88 33)"/>
</clipPath>
<clipPath id="clip4_18_22">
<rect width="24" height="24" fill="white" transform="translate(176 33)"/>
</clipPath>
</defs>
</svg>
