<svg width="96" height="24" viewBox="0 0 96 24" fill="none" xmlns="http://www.w3.org/2000/svg">
<path d="M43.4285 6.25808C44.8788 4.80478 46.6278 4.07812 48.6753 4.07812C50.7228 4.07812 52.4718 4.80478 53.9221 6.25808C55.3724 7.71138 56.0976 9.46389 56.0976 11.5156C56.0976 13.5673 55.3724 15.3198 53.9221 16.7731C52.4718 18.2264 50.7228 18.9531 48.6753 18.9531C46.6278 18.9531 44.8788 18.2264 43.4285 16.7731C41.9782 15.3198 41.253 13.5673 41.253 11.5156C41.253 9.46389 41.9782 7.71138 43.4285 6.25808ZM51.0144 9.1728C50.3707 8.52751 49.5912 8.20493 48.6759 8.20507C47.7607 8.20522 46.9811 8.52779 46.3373 9.1728C45.6934 9.8181 45.3716 10.5992 45.3717 11.516C45.3717 12.4177 45.6936 13.191 46.3373 13.8362C46.981 14.4813 47.7605 14.8038 48.6759 14.8037C49.5912 14.8037 50.3707 14.4812 51.0144 13.8362C51.6581 13.1912 51.9801 12.4178 51.9804 11.516C51.9804 10.599 51.6584 9.81795 51.0144 9.1728Z" fill="white"/>
<path d="M17.6405 13.6274C17.6445 14.3343 17.5034 15.0344 17.2261 15.6844C16.9607 16.3129 16.5758 16.8837 16.0929 17.3649C15.608 17.8446 15.0368 18.2278 14.4094 18.4942C13.7659 18.7709 13.0772 18.9093 12.3433 18.9095C11.6973 18.9113 11.0563 18.7947 10.4521 18.5656C9.84683 18.3352 9.28957 17.9941 8.80875 17.5596C8.33504 17.9947 7.78345 18.336 7.1831 18.5656C6.57676 18.7959 5.9333 18.9125 5.28486 18.9095C4.55116 18.9095 3.86488 18.7711 3.22602 18.4942C2.60092 18.2269 2.03179 17.8438 1.54853 17.3649C1.06561 16.8837 0.68073 16.3129 0.415346 15.6844C0.137501 15.0346 -0.00385517 14.3343 7.99573e-05 13.6274V8.60065L3.53613 6.99924V13.6274C3.53439 13.8614 3.58071 14.0932 3.67221 14.3085C3.85015 14.7295 4.18456 15.0647 4.60469 15.2431C4.81959 15.3346 5.05094 15.3809 5.28443 15.3792C5.52045 15.3806 5.75432 15.3343 5.97206 15.2431C6.18406 15.1549 6.37744 15.0272 6.54196 14.8667C6.70733 14.7058 6.83848 14.5131 6.92751 14.3C7.01655 14.087 7.06163 13.8581 7.06003 13.6271L7.08115 5.55812L10.6044 3.94196L10.5816 13.6274C10.5799 13.862 10.6283 14.0942 10.7236 14.3085C10.8158 14.5164 10.9453 14.7056 11.1056 14.8667C11.2655 15.0268 11.4547 15.1546 11.6627 15.2431C11.8777 15.3346 12.1091 15.3809 12.3427 15.3792C12.8107 15.381 13.2603 15.1965 13.5927 14.8663C13.7531 14.7052 13.8826 14.516 13.9747 14.3081C14.0702 14.0938 14.1187 13.8616 14.117 13.6269L14.1577 2.23411L17.6867 0.604492L17.6405 13.6274Z" fill="white"/>
<path d="M23.7669 18.6498H20.205V4.75H23.7669V18.6498Z" fill="white"/>
<path d="M22.1913 0.0121821C22.1231 0.00422849 22.0545 0.000161244 21.9859 0C21.9646 0 21.9411 0 21.9189 0.00170977L21.8748 0V0.00384698C21.528 0.0257795 21.1953 0.148865 20.9175 0.357941C20.6397 0.567017 20.429 0.85295 20.3114 1.18052C20.1938 1.50808 20.1743 1.86297 20.2555 2.20147C20.3367 2.53997 20.5149 2.84728 20.7681 3.08556C21.0214 3.32383 21.3387 3.48266 21.681 3.54248C22.0232 3.60229 22.3755 3.56048 22.6943 3.42219C23.0131 3.28391 23.2846 3.05519 23.4754 2.76421C23.6661 2.47323 23.7677 2.1327 23.7677 1.78457V0.0728788L22.1913 0.0121821Z" fill="#558FFC"/>
<path d="M78.9722 22.0042H78.0003V22.7674H78.9437V22.9781H78.0003V23.7603H78.9978V23.9711H77.7608V21.7935H78.9716L78.9722 22.0042Z" fill="white"/>
<path d="M81.1676 22.2055C80.9223 22.0715 80.6864 21.9917 80.4126 21.9917C79.8962 21.9917 79.5012 22.3717 79.5012 22.8894C79.5012 23.41 79.893 23.774 80.403 23.774C80.6896 23.774 80.9383 23.6908 81.19 23.544V23.8026C80.9497 23.932 80.6813 24 80.4085 24.0007C79.7107 24.0007 79.2453 23.4961 79.2453 22.8894C79.2453 22.2029 79.8094 21.7656 80.3925 21.7656C80.6602 21.7656 80.9215 21.8389 81.1667 21.9475L81.1676 22.2055Z" fill="white"/>
<path d="M81.4129 22.8827C81.4129 22.3078 81.8431 21.7651 82.5728 21.7651C83.2803 21.7651 83.7358 22.2888 83.7358 22.8827C83.7358 23.5339 83.2133 24.0002 82.5602 24.0002C81.9229 24.0011 81.4129 23.5243 81.4129 22.8827ZM83.4818 22.8763C83.4818 22.4452 83.1504 21.9917 82.5736 21.9917C82.0161 21.9917 81.6686 22.4163 81.6686 22.8857C81.6686 23.4159 82.0924 23.7735 82.5578 23.7735C83.0763 23.7735 83.481 23.3999 83.481 22.8763H83.4818Z" fill="white"/>
<path d="M86.1458 23.9711H85.9067V22.1574L85.1579 23.0867H85.1325L84.3804 22.1574V23.9711H84.1409V21.7935H84.3704L85.1446 22.7481L85.9159 21.7935H86.1458V23.9711Z" fill="white"/>
<path d="M88.6588 23.9711H88.4197V22.1574L87.6709 23.0867H87.6455L86.8934 22.1574V23.9711H86.6544V21.7935H86.8839L87.6581 22.7481L88.4293 21.7935H88.6588V23.9711Z" fill="white"/>
<path d="M90.3794 22.0042H89.4075V22.7674H90.3506V22.9781H89.4075V23.7603H90.4048V23.9711H89.1678V21.7935H90.3788L90.3794 22.0042Z" fill="white"/>
<path d="M91.3128 21.7935C91.8768 21.7935 92.0297 22.116 92.0297 22.3778C92.0297 22.6746 91.8482 22.8345 91.6409 22.9121C91.7972 23.0142 91.9053 23.1835 92.173 23.605C92.2656 23.7518 92.3134 23.8187 92.4217 23.9721H92.1348L91.9277 23.6432C91.8424 23.506 91.746 23.3686 91.6473 23.241C91.5071 23.0621 91.386 22.976 91.1535 22.976H90.9974V23.9721H90.7582V21.7935H91.3128ZM90.9974 22.0042V22.7642H91.2776C91.5869 22.7642 91.7748 22.63 91.7748 22.381C91.7748 22.1542 91.6091 22.0042 91.2776 22.0042H90.9974Z" fill="white"/>
<path d="M94.3685 22.2055C94.123 22.0715 93.8874 21.9917 93.6133 21.9917C93.0971 21.9917 92.7019 22.3717 92.7019 22.8894C92.7019 23.41 93.0939 23.774 93.6037 23.774C93.8906 23.774 94.139 23.6908 94.3907 23.544V23.8026C94.1509 23.9318 93.883 23.9998 93.6107 24.0007C92.9129 24.0007 92.4477 23.4961 92.4477 22.8894C92.4477 22.2029 93.0116 21.7656 93.5947 21.7656C93.8624 21.7656 94.1237 21.8389 94.3692 21.9475L94.3685 22.2055Z" fill="white"/>
<path d="M95.9745 22.0042H95.0026V22.7674H95.9459V22.9781H95.0026V23.7603H95.9997V23.9711H94.7626V21.7935H95.9734L95.9745 22.0042Z" fill="white"/>
<path d="M33.0861 4.10107C34.6685 4.10107 36.0919 4.54412 37.3562 5.43021C38.6206 6.31629 39.5164 7.47438 40.0436 8.90446H35.1108C34.5055 8.45365 33.8306 8.22824 33.0861 8.22824C32.1711 8.22824 31.3955 8.54697 30.7593 9.18443C30.1232 9.82189 29.8052 10.5992 29.8053 11.5163C29.8053 12.4332 30.1233 13.2143 30.7593 13.8596C31.3954 14.5049 32.1709 14.8273 33.0861 14.8269C33.9546 14.8269 34.7148 14.5238 35.3667 13.9177H40.1136C39.6017 15.4099 38.7059 16.6224 37.4262 17.5552C36.1465 18.4881 34.6999 18.9543 33.0865 18.954C31.039 18.954 29.2937 18.2313 27.8508 16.7858C26.4078 15.3404 25.6864 13.5837 25.6866 11.5159C25.6866 9.46419 26.4078 7.71545 27.8504 6.2697C29.2929 4.82395 31.0381 4.10107 33.0861 4.10107Z" fill="white"/>
<path d="M70.0827 4.07764C71.603 4.07764 72.9138 4.62562 74.0151 5.72158C75.1163 6.81754 75.6671 8.12715 75.6674 9.6504V18.9539H71.5256V9.6504C71.5256 9.262 71.3821 8.92397 71.0952 8.6363C70.8083 8.34863 70.4708 8.2048 70.0827 8.2048C69.6948 8.2048 69.3574 8.34863 69.0705 8.6363C68.7835 8.92397 68.6401 9.262 68.6401 9.6504V18.9539H64.5215V9.6504C64.5215 9.262 64.3781 8.92397 64.0911 8.6363C63.8042 8.34863 63.4667 8.2048 63.0787 8.2048C62.6754 8.2048 62.3342 8.34863 62.0549 8.6363C61.7756 8.92397 61.636 9.262 61.636 9.6504V18.9539H57.5173V9.6504C57.5173 8.11162 58.0641 6.79809 59.1579 5.70982C60.2516 4.62156 61.5585 4.07749 63.0787 4.07764C64.3817 4.07764 65.553 4.49738 66.5925 5.33688C67.6005 4.49738 68.7639 4.07764 70.0827 4.07764Z" fill="white"/>
<path d="M90.3606 4.07764C91.8809 4.07764 93.1916 4.62562 94.2929 5.72158C95.3942 6.81754 95.9449 8.12715 95.9452 9.6504V18.9539H91.8034V9.6504C91.8034 9.262 91.66 8.92397 91.373 8.6363C91.0861 8.34863 90.7486 8.2048 90.3606 8.2048C89.9727 8.2048 89.6353 8.34863 89.3485 8.6363C89.0617 8.92397 88.9184 9.262 88.9185 9.6504V18.9539H84.8V9.6504C84.8 9.262 84.6565 8.92397 84.3696 8.6363C84.0827 8.34863 83.7452 8.2048 83.3571 8.2048C82.9539 8.2048 82.6126 8.34863 82.3334 8.6363C82.0541 8.92397 81.9145 9.262 81.9145 9.6504V18.9539H77.7951V9.6504C77.7951 8.11162 78.342 6.79809 79.4357 5.70982C80.5294 4.62156 81.8364 4.07749 83.3565 4.07764C84.6595 4.07764 85.8308 4.49738 86.8704 5.33688C87.8784 4.49738 89.0418 4.07764 90.3606 4.07764Z" fill="white"/>
</svg>
