<svg width="475" height="280" viewBox="0 0 475 280" fill="none" xmlns="http://www.w3.org/2000/svg">
<rect width="475" height="280" fill="url(#paint0_linear_12_9)"/>
<path d="M53.2227 69.3633C53.3008 68.7773 53.2812 68.2695 53.1641 67.8398C53.0599 67.4102 52.8646 67.0326 52.5781 66.707C52.3047 66.3685 51.9661 66.069 51.5625 65.8086C51.1589 65.5352 50.7031 65.2812 50.1953 65.0469C49.2578 64.5911 48.3854 64.0898 47.5781 63.543C46.7708 62.9961 46.0547 62.3776 45.4297 61.6875C44.8177 60.9974 44.3555 60.2096 44.043 59.3242C43.7305 58.4258 43.6133 57.4167 43.6914 56.2969C43.7826 55.0208 44.1081 53.875 44.668 52.8594C45.2279 51.8438 45.957 50.9844 46.8555 50.2812C47.7539 49.5651 48.763 49.0312 49.8828 48.6797C51.0026 48.3151 52.1745 48.1458 53.3984 48.1719C55.1042 48.2109 56.5365 48.6276 57.6953 49.4219C58.8542 50.2031 59.7135 51.2513 60.2734 52.5664C60.8464 53.8685 61.1068 55.3333 61.0547 56.9609L55.4883 56.9414C55.5273 56.3164 55.4883 55.6849 55.3711 55.0469C55.2669 54.4089 55.0195 53.888 54.6289 53.4844C54.2513 53.0677 53.6719 52.8529 52.8906 52.8398C52.2005 52.8398 51.5951 52.9961 51.0742 53.3086C50.5534 53.6081 50.1302 54.0182 49.8047 54.5391C49.4792 55.0599 49.2708 55.6458 49.1797 56.2969C49.1146 56.8047 49.1667 57.2604 49.3359 57.6641C49.5182 58.0677 49.7656 58.4323 50.0781 58.7578C50.4036 59.0703 50.7682 59.3568 51.1719 59.6172C51.5755 59.8776 51.9792 60.0924 52.3828 60.2617C53.3594 60.7565 54.2578 61.2773 55.0781 61.8242C55.9115 62.3711 56.6146 63.0026 57.1875 63.7188C57.7734 64.4219 58.1966 65.2357 58.457 66.1602C58.7305 67.0846 58.8281 68.1393 58.75 69.3242C58.6458 70.6393 58.3268 71.7982 57.793 72.8008C57.2721 73.8034 56.582 74.6562 55.7227 75.3594C54.8633 76.0495 53.8802 76.5703 52.7734 76.9219C51.6667 77.2734 50.4818 77.4362 49.2188 77.4102C47.8646 77.3711 46.6536 77.1172 45.5859 76.6484C44.5182 76.1667 43.6198 75.5091 42.8906 74.6758C42.1745 73.8294 41.6406 72.8398 41.2891 71.707C40.9375 70.5612 40.8008 69.3307 40.8789 68.0156L46.4453 68.0352C46.4062 68.6471 46.4128 69.2396 46.4648 69.8125C46.5169 70.3854 46.6602 70.8867 46.8945 71.3164C47.1289 71.7461 47.4674 72.0911 47.9102 72.3516C48.3529 72.612 48.9388 72.7422 49.668 72.7422C50.3581 72.7422 50.9505 72.599 51.4453 72.3125C51.9401 72.013 52.3372 71.6094 52.6367 71.1016C52.9362 70.5938 53.1315 70.0143 53.2227 69.3633ZM77.8125 72.2734L76.9727 77H64.9805L65.7812 72.2734H77.8125ZM71.6406 48.5625L66.7188 77H61.1328L66.0352 48.5625H71.6406ZM78.3203 60.0859L77.5195 64.6758H67.1094L67.8906 60.0859H78.3203ZM81.875 48.5625L81.0352 53.3086H69.0625L69.9023 48.5625H81.875ZM97.5195 48.5625H103.086L99.7656 68.0742C99.5052 69.9883 98.9323 71.6549 98.0469 73.0742C97.1745 74.4805 96.0091 75.5612 94.5508 76.3164C93.0924 77.0716 91.3737 77.4362 89.3945 77.4102C87.5195 77.3711 85.9635 76.9609 84.7266 76.1797C83.4896 75.3854 82.6042 74.2982 82.0703 72.918C81.5495 71.5247 81.3932 69.9167 81.6016 68.0938L84.9219 48.5625H90.4688L87.207 68.1133C87.1159 68.8945 87.1029 69.6302 87.168 70.3203C87.2331 70.9974 87.4674 71.5508 87.8711 71.9805C88.2747 72.3971 88.9388 72.625 89.8633 72.6641C90.8398 72.7031 91.6211 72.5273 92.207 72.1367C92.806 71.7461 93.2552 71.1992 93.5547 70.4961C93.8672 69.7799 94.0951 68.9857 94.2383 68.1133L97.5195 48.5625ZM119.023 77H113.867L114.727 72.2734L119.297 72.293C120.833 72.306 122.057 71.9935 122.969 71.3555C123.893 70.7044 124.583 69.832 125.039 68.7383C125.495 67.6315 125.827 66.3815 126.035 64.9883L126.66 60.5352C126.764 59.7148 126.836 58.888 126.875 58.0547C126.927 57.2214 126.862 56.4531 126.68 55.75C126.497 55.0469 126.133 54.4805 125.586 54.0508C125.052 53.6081 124.258 53.3672 123.203 53.3281L117.871 53.3086L118.711 48.5625L123.438 48.582C125.156 48.6211 126.615 48.9727 127.812 49.6367C129.01 50.3008 129.967 51.1927 130.684 52.3125C131.413 53.4323 131.901 54.7018 132.148 56.1211C132.396 57.5404 132.422 59.0312 132.227 60.5938L131.562 65.0078C131.302 66.6875 130.84 68.263 130.176 69.7344C129.525 71.1927 128.672 72.4688 127.617 73.5625C126.576 74.6432 125.339 75.4896 123.906 76.1016C122.487 76.7135 120.859 77.013 119.023 77ZM122.031 48.5625L117.109 77H111.523L116.426 48.5625H122.031ZM144.16 48.5625L139.219 77H133.672L138.613 48.5625H144.16ZM168.164 48.5625L163.223 77H157.773L152.773 58.0547L149.492 77H143.906L148.809 48.5625H154.277L159.316 67.5273L162.598 48.5625H168.164ZM185.918 60.0859L185.078 64.8125H173.73L174.551 60.0859H185.918ZM178.164 48.5625L173.242 77H167.656L172.559 48.5625H178.164ZM191.934 48.5625L186.992 77H181.465L186.406 48.5625H191.934ZM208.164 72.2734L207.324 77H195.332L196.133 72.2734H208.164ZM201.992 48.5625L197.07 77H191.484L196.387 48.5625H201.992ZM208.672 60.0859L207.871 64.6758H197.461L198.242 60.0859H208.672ZM212.227 48.5625L211.387 53.3086H199.414L200.254 48.5625H212.227ZM221.27 48.5625L216.328 77H210.781L215.723 48.5625H221.27ZM225.938 48.5625L234.531 48.582C236.237 48.6341 237.669 49.0052 238.828 49.6953C240 50.3724 240.866 51.3359 241.426 52.5859C241.999 53.8229 242.214 55.2943 242.07 57C241.953 58.4193 241.647 59.6628 241.152 60.7305C240.671 61.7852 239.993 62.7096 239.121 63.5039C238.249 64.2852 237.181 64.9688 235.918 65.5547L234.023 66.5703H226.562L227.383 61.8242L232.109 61.8633C232.982 61.8503 233.724 61.6484 234.336 61.2578C234.948 60.8672 235.43 60.3398 235.781 59.6758C236.146 59.0117 236.38 58.276 236.484 57.4688C236.562 56.8568 236.569 56.2383 236.504 55.6133C236.452 54.9883 236.257 54.4609 235.918 54.0312C235.579 53.6016 235.039 53.3672 234.297 53.3281L230.723 53.3086L226.621 77H221.035L225.938 48.5625ZM233.672 77L230.801 64.3242L236.426 64.3047L239.629 76.6875V77H233.672ZM264.688 60.5742L263.984 65.2812C263.737 66.8828 263.327 68.4258 262.754 69.9102C262.181 71.3815 261.419 72.6836 260.469 73.8164C259.518 74.9492 258.366 75.8411 257.012 76.4922C255.658 77.1302 254.089 77.4297 252.305 77.3906C250.599 77.3516 249.173 76.987 248.027 76.2969C246.895 75.6068 246.009 74.6888 245.371 73.543C244.733 72.3971 244.316 71.1146 244.121 69.6953C243.939 68.263 243.939 66.8047 244.121 65.3203L244.824 60.5938C245.072 58.9792 245.482 57.4297 246.055 55.9453C246.628 54.4479 247.389 53.1068 248.34 51.9219C249.303 50.737 250.469 49.806 251.836 49.1289C253.203 48.4388 254.792 48.1198 256.602 48.1719C258.333 48.2109 259.766 48.5951 260.898 49.3242C262.031 50.0534 262.91 51.0169 263.535 52.2148C264.16 53.3997 264.557 54.7214 264.727 56.1797C264.896 57.625 264.883 59.0898 264.688 60.5742ZM258.457 65.3203L259.141 60.4961C259.232 59.832 259.297 59.0833 259.336 58.25C259.388 57.4036 259.342 56.5833 259.199 55.7891C259.056 54.9818 258.757 54.3112 258.301 53.7773C257.845 53.2435 257.142 52.957 256.191 52.918C255.15 52.8659 254.277 53.0742 253.574 53.543C252.884 54.0117 252.324 54.6432 251.895 55.4375C251.465 56.2188 251.133 57.0586 250.898 57.957C250.677 58.8555 250.501 59.7148 250.371 60.5352L249.707 65.3398C249.616 66.0169 249.551 66.7656 249.512 67.5859C249.473 68.4062 249.531 69.2005 249.688 69.9688C249.857 70.724 250.169 71.3555 250.625 71.8633C251.094 72.3581 251.803 72.625 252.754 72.6641C253.757 72.7161 254.596 72.5208 255.273 72.0781C255.951 71.6224 256.504 71.0234 256.934 70.2812C257.363 69.5391 257.695 68.7318 257.93 67.8594C258.164 66.974 258.34 66.1276 258.457 65.3203Z" fill="white"/>
<path d="M47.6953 124H42.5391L43.3984 119.273L47.9688 119.293C49.5052 119.306 50.7292 118.993 51.6406 118.355C52.5651 117.704 53.2552 116.832 53.7109 115.738C54.1667 114.632 54.4987 113.382 54.707 111.988L55.332 107.535C55.4362 106.715 55.5078 105.888 55.5469 105.055C55.599 104.221 55.5339 103.453 55.3516 102.75C55.1693 102.047 54.8047 101.48 54.2578 101.051C53.724 100.608 52.9297 100.367 51.875 100.328L46.543 100.309L47.3828 95.5625L52.1094 95.582C53.8281 95.6211 55.2865 95.9727 56.4844 96.6367C57.6823 97.3008 58.6393 98.1927 59.3555 99.3125C60.0846 100.432 60.5729 101.702 60.8203 103.121C61.0677 104.54 61.0938 106.031 60.8984 107.594L60.2344 112.008C59.974 113.688 59.5117 115.263 58.8477 116.734C58.1966 118.193 57.3438 119.469 56.2891 120.562C55.2474 121.643 54.0104 122.49 52.5781 123.102C51.1589 123.714 49.5312 124.013 47.6953 124ZM50.7031 95.5625L45.7812 124H40.1953L45.0977 95.5625H50.7031ZM78.7891 119.273L77.9492 124H65.957L66.7578 119.273H78.7891ZM72.6172 95.5625L67.6953 124H62.1094L67.0117 95.5625H72.6172ZM79.2969 107.086L78.4961 111.676H68.0859L68.8672 107.086H79.2969ZM82.8516 95.5625L82.0117 100.309H70.0391L70.8789 95.5625H82.8516ZM100.059 117.672L108.535 95.5625H114.863L102.402 124H98.2617L100.059 117.672ZM99.2188 95.5625L100.781 118.16L100.684 124H96.6797L93.2031 95.5625H99.2188ZM134.648 107.574L133.945 112.281C133.698 113.883 133.288 115.426 132.715 116.91C132.142 118.382 131.38 119.684 130.43 120.816C129.479 121.949 128.327 122.841 126.973 123.492C125.618 124.13 124.049 124.43 122.266 124.391C120.56 124.352 119.134 123.987 117.988 123.297C116.855 122.607 115.97 121.689 115.332 120.543C114.694 119.397 114.277 118.115 114.082 116.695C113.9 115.263 113.9 113.805 114.082 112.32L114.785 107.594C115.033 105.979 115.443 104.43 116.016 102.945C116.589 101.448 117.35 100.107 118.301 98.9219C119.264 97.737 120.43 96.806 121.797 96.1289C123.164 95.4388 124.753 95.1198 126.562 95.1719C128.294 95.2109 129.727 95.5951 130.859 96.3242C131.992 97.0534 132.871 98.0169 133.496 99.2148C134.121 100.4 134.518 101.721 134.688 103.18C134.857 104.625 134.844 106.09 134.648 107.574ZM128.418 112.32L129.102 107.496C129.193 106.832 129.258 106.083 129.297 105.25C129.349 104.404 129.303 103.583 129.16 102.789C129.017 101.982 128.717 101.311 128.262 100.777C127.806 100.243 127.103 99.957 126.152 99.918C125.111 99.8659 124.238 100.074 123.535 100.543C122.845 101.012 122.285 101.643 121.855 102.438C121.426 103.219 121.094 104.059 120.859 104.957C120.638 105.855 120.462 106.715 120.332 107.535L119.668 112.34C119.577 113.017 119.512 113.766 119.473 114.586C119.434 115.406 119.492 116.201 119.648 116.969C119.818 117.724 120.13 118.355 120.586 118.863C121.055 119.358 121.764 119.625 122.715 119.664C123.717 119.716 124.557 119.521 125.234 119.078C125.911 118.622 126.465 118.023 126.895 117.281C127.324 116.539 127.656 115.732 127.891 114.859C128.125 113.974 128.301 113.128 128.418 112.32ZM152.07 119.273L151.23 124H139.746L140.566 119.273H152.07ZM146.406 95.5625L141.484 124H135.898L140.801 95.5625H146.406ZM166.387 95.5625L161.445 124H155.879L160.82 95.5625H166.387ZM173.223 95.5625L172.402 100.309H153.281L154.102 95.5625H173.223ZM183.164 100.914L173.301 124H167.246L180.801 95.5625H184.609L183.164 100.914ZM183.887 124L181.934 100.445L182.246 95.5625H185.859L189.629 124H183.887ZM185.898 113.395L185.059 118.141H172.559L173.398 113.395H185.898Z" fill="#FF9601"/>
<defs>
<linearGradient id="paint0_linear_12_9" x1="442" y1="-96.5" x2="297" y2="271" gradientUnits="userSpaceOnUse">
<stop stop-color="#9A9A9A"/>
<stop offset="1" stop-color="#0B0B0B"/>
</linearGradient>
</defs>
</svg>
