<svg width="475" height="280" viewBox="0 0 475 280" fill="none" xmlns="http://www.w3.org/2000/svg">
<rect width="475" height="280" fill="url(#paint0_linear_12_6)"/>
<path d="M61.5039 62.0586L59.7266 73.7773C58.9453 74.6497 58.0273 75.3529 56.9727 75.8867C55.918 76.4206 54.8047 76.8047 53.6328 77.0391C52.4609 77.2865 51.3086 77.4036 50.1758 77.3906C48.431 77.3646 46.9792 77.0065 45.8203 76.3164C44.6615 75.6263 43.7565 74.7083 43.1055 73.5625C42.4674 72.4036 42.0508 71.1081 41.8555 69.6758C41.6732 68.2435 41.6797 66.7526 41.875 65.2031L42.6172 60.3594C42.8516 58.7578 43.2487 57.2214 43.8086 55.75C44.3685 54.2786 45.1107 52.9635 46.0352 51.8047C46.9596 50.6458 48.0924 49.7409 49.4336 49.0898C50.7878 48.4258 52.3698 48.1133 54.1797 48.1523C56.1589 48.2044 57.7409 48.6276 58.9258 49.4219C60.1107 50.2031 60.9766 51.3034 61.5234 52.7227C62.0703 54.1289 62.3568 55.7565 62.3828 57.6055H56.9727C56.9857 56.7982 56.9271 56.043 56.7969 55.3398C56.6667 54.6237 56.3867 54.0443 55.957 53.6016C55.5273 53.1458 54.8372 52.8984 53.8867 52.8594C52.8581 52.8203 51.9987 53.0286 51.3086 53.4844C50.6315 53.9401 50.0781 54.5391 49.6484 55.2812C49.2188 56.0234 48.8867 56.8438 48.6523 57.7422C48.431 58.6276 48.2747 59.487 48.1836 60.3203L47.4805 65.2227C47.3893 65.9648 47.3177 66.7591 47.2656 67.6055C47.2266 68.4518 47.2917 69.2591 47.4609 70.0273C47.6432 70.7826 47.9883 71.4076 48.4961 71.9023C49.0039 72.3841 49.7591 72.6315 50.7617 72.6445C51.2174 72.6445 51.6341 72.6055 52.0117 72.5273C52.4023 72.4362 52.7734 72.3125 53.125 72.1562C53.4896 71.987 53.8542 71.8047 54.2188 71.6094L55.2539 66.375H51.2695L52.0312 62.0586H61.5039ZM76.9531 53.9141L67.0898 77H61.0352L74.5898 48.5625H78.3984L76.9531 53.9141ZM77.6758 77L75.7227 53.4453L76.0352 48.5625H79.6484L83.418 77H77.6758ZM79.6875 66.3945L78.8477 71.1406H66.3477L67.1875 66.3945H79.6875ZM91.0156 48.5625L99.6094 48.582C101.315 48.6341 102.747 49.0052 103.906 49.6953C105.078 50.3724 105.944 51.3359 106.504 52.5859C107.077 53.8229 107.292 55.2943 107.148 57C107.031 58.4193 106.725 59.6628 106.23 60.7305C105.749 61.7852 105.072 62.7096 104.199 63.5039C103.327 64.2852 102.259 64.9688 100.996 65.5547L99.1016 66.5703H91.6406L92.4609 61.8242L97.1875 61.8633C98.0599 61.8503 98.8021 61.6484 99.4141 61.2578C100.026 60.8672 100.508 60.3398 100.859 59.6758C101.224 59.0117 101.458 58.276 101.562 57.4688C101.641 56.8568 101.647 56.2383 101.582 55.6133C101.53 54.9883 101.335 54.4609 100.996 54.0312C100.658 53.6016 100.117 53.3672 99.375 53.3281L95.8008 53.3086L91.6992 77H86.1133L91.0156 48.5625ZM98.75 77L95.8789 64.3242L101.504 64.3047L104.707 76.6875V77H98.75ZM121.602 53.9141L111.738 77H105.684L119.238 48.5625H123.047L121.602 53.9141ZM122.324 77L120.371 53.4453L120.684 48.5625H124.297L128.066 77H122.324ZM124.336 66.3945L123.496 71.1406H110.996L111.836 66.3945H124.336ZM155 48.5625L150.059 77H144.609L139.609 58.0547L136.328 77H130.742L135.645 48.5625H141.113L146.152 67.5273L149.434 48.5625H155ZM169.863 48.5625L164.922 77H159.355L164.297 48.5625H169.863ZM176.699 48.5625L175.879 53.3086H156.758L157.578 48.5625H176.699ZM186.641 53.9141L176.777 77H170.723L184.277 48.5625H188.086L186.641 53.9141ZM187.363 77L185.41 53.4453L185.723 48.5625H189.336L193.105 77H187.363ZM189.375 66.3945L188.535 71.1406H176.035L176.875 66.3945H189.375ZM227.109 60.5742L226.406 65.2812C226.159 66.8828 225.749 68.4258 225.176 69.9102C224.603 71.3815 223.841 72.6836 222.891 73.8164C221.94 74.9492 220.788 75.8411 219.434 76.4922C218.079 77.1302 216.51 77.4297 214.727 77.3906C213.021 77.3516 211.595 76.987 210.449 76.2969C209.316 75.6068 208.431 74.6888 207.793 73.543C207.155 72.3971 206.738 71.1146 206.543 69.6953C206.361 68.263 206.361 66.8047 206.543 65.3203L207.246 60.5938C207.493 58.9792 207.904 57.4297 208.477 55.9453C209.049 54.4479 209.811 53.1068 210.762 51.9219C211.725 50.737 212.891 49.806 214.258 49.1289C215.625 48.4388 217.214 48.1198 219.023 48.1719C220.755 48.2109 222.188 48.5951 223.32 49.3242C224.453 50.0534 225.332 51.0169 225.957 52.2148C226.582 53.3997 226.979 54.7214 227.148 56.1797C227.318 57.625 227.305 59.0898 227.109 60.5742ZM220.879 65.3203L221.562 60.4961C221.654 59.832 221.719 59.0833 221.758 58.25C221.81 57.4036 221.764 56.5833 221.621 55.7891C221.478 54.9818 221.178 54.3112 220.723 53.7773C220.267 53.2435 219.564 52.957 218.613 52.918C217.572 52.8659 216.699 53.0742 215.996 53.543C215.306 54.0117 214.746 54.6432 214.316 55.4375C213.887 56.2188 213.555 57.0586 213.32 57.957C213.099 58.8555 212.923 59.7148 212.793 60.5352L212.129 65.3398C212.038 66.0169 211.973 66.7656 211.934 67.5859C211.895 68.4062 211.953 69.2005 212.109 69.9688C212.279 70.724 212.591 71.3555 213.047 71.8633C213.516 72.3581 214.225 72.625 215.176 72.6641C216.178 72.7161 217.018 72.5208 217.695 72.0781C218.372 71.6224 218.926 71.0234 219.355 70.2812C219.785 69.5391 220.117 68.7318 220.352 67.8594C220.586 66.974 220.762 66.1276 220.879 65.3203Z" fill="white"/>
<path d="M50.7031 95.5625L45.7812 124H40.1953L45.0977 95.5625H50.7031ZM57.2656 107.652L56.4258 112.379H46.3477L47.1875 107.652H57.2656ZM60.4102 95.5625L59.5703 100.309H48.457L49.2773 95.5625H60.4102ZM63.5938 95.5625L72.1875 95.582C73.8932 95.6341 75.3255 96.0052 76.4844 96.6953C77.6562 97.3724 78.5221 98.3359 79.082 99.5859C79.6549 100.823 79.8698 102.294 79.7266 104C79.6094 105.419 79.3034 106.663 78.8086 107.73C78.3268 108.785 77.6497 109.71 76.7773 110.504C75.9049 111.285 74.8372 111.969 73.5742 112.555L71.6797 113.57H64.2188L65.0391 108.824L69.7656 108.863C70.638 108.85 71.3802 108.648 71.9922 108.258C72.6042 107.867 73.0859 107.34 73.4375 106.676C73.8021 106.012 74.0365 105.276 74.1406 104.469C74.2188 103.857 74.2253 103.238 74.1602 102.613C74.1081 101.988 73.9128 101.461 73.5742 101.031C73.2357 100.602 72.6953 100.367 71.9531 100.328L68.3789 100.309L64.2773 124H58.6914L63.5938 95.5625ZM71.3281 124L68.457 111.324L74.082 111.305L77.2852 123.688V124H71.3281ZM96.8359 119.273L95.9961 124H84.0039L84.8047 119.273H96.8359ZM90.6641 95.5625L85.7422 124H80.1562L85.0586 95.5625H90.6641ZM97.3438 107.086L96.543 111.676H86.1328L86.9141 107.086H97.3438ZM100.898 95.5625L100.059 100.309H88.0859L88.9258 95.5625H100.898ZM115.566 95.5625L110.625 124H105.059L110 95.5625H115.566ZM122.402 95.5625L121.582 100.309H102.461L103.281 95.5625H122.402ZM137.344 119.273L136.504 124H124.512L125.312 119.273H137.344ZM131.172 95.5625L126.25 124H120.664L125.566 95.5625H131.172ZM137.852 107.086L137.051 111.676H126.641L127.422 107.086H137.852ZM141.406 95.5625L140.566 100.309H128.594L129.434 95.5625H141.406ZM170.176 109.059L168.398 120.777C167.617 121.65 166.699 122.353 165.645 122.887C164.59 123.421 163.477 123.805 162.305 124.039C161.133 124.286 159.98 124.404 158.848 124.391C157.103 124.365 155.651 124.007 154.492 123.316C153.333 122.626 152.428 121.708 151.777 120.562C151.139 119.404 150.723 118.108 150.527 116.676C150.345 115.243 150.352 113.753 150.547 112.203L151.289 107.359C151.523 105.758 151.921 104.221 152.48 102.75C153.04 101.279 153.783 99.9635 154.707 98.8047C155.632 97.6458 156.764 96.7409 158.105 96.0898C159.46 95.4258 161.042 95.1133 162.852 95.1523C164.831 95.2044 166.413 95.6276 167.598 96.4219C168.783 97.2031 169.648 98.3034 170.195 99.7227C170.742 101.129 171.029 102.757 171.055 104.605H165.645C165.658 103.798 165.599 103.043 165.469 102.34C165.339 101.624 165.059 101.044 164.629 100.602C164.199 100.146 163.509 99.8984 162.559 99.8594C161.53 99.8203 160.671 100.029 159.98 100.484C159.303 100.94 158.75 101.539 158.32 102.281C157.891 103.023 157.559 103.844 157.324 104.742C157.103 105.628 156.947 106.487 156.855 107.32L156.152 112.223C156.061 112.965 155.99 113.759 155.938 114.605C155.898 115.452 155.964 116.259 156.133 117.027C156.315 117.783 156.66 118.408 157.168 118.902C157.676 119.384 158.431 119.632 159.434 119.645C159.889 119.645 160.306 119.605 160.684 119.527C161.074 119.436 161.445 119.312 161.797 119.156C162.161 118.987 162.526 118.805 162.891 118.609L163.926 113.375H159.941L160.703 109.059H170.176ZM176.523 95.5625L185.117 95.582C186.823 95.6341 188.255 96.0052 189.414 96.6953C190.586 97.3724 191.452 98.3359 192.012 99.5859C192.585 100.823 192.799 102.294 192.656 104C192.539 105.419 192.233 106.663 191.738 107.73C191.257 108.785 190.579 109.71 189.707 110.504C188.835 111.285 187.767 111.969 186.504 112.555L184.609 113.57H177.148L177.969 108.824L182.695 108.863C183.568 108.85 184.31 108.648 184.922 108.258C185.534 107.867 186.016 107.34 186.367 106.676C186.732 106.012 186.966 105.276 187.07 104.469C187.148 103.857 187.155 103.238 187.09 102.613C187.038 101.988 186.842 101.461 186.504 101.031C186.165 100.602 185.625 100.367 184.883 100.328L181.309 100.309L177.207 124H171.621L176.523 95.5625ZM184.258 124L181.387 111.324L187.012 111.305L190.215 123.688V124H184.258ZM207.109 100.914L197.246 124H191.191L204.746 95.5625H208.555L207.109 100.914ZM207.832 124L205.879 100.445L206.191 95.5625H209.805L213.574 124H207.832ZM209.844 113.395L209.004 118.141H196.504L197.344 113.395H209.844ZM204.922 93.9805L209.609 87.9453H215.918L209.707 93.9805H204.922ZM229.863 95.5625L224.922 124H219.355L224.297 95.5625H229.863ZM236.699 95.5625L235.879 100.309H216.758L217.578 95.5625H236.699ZM245.684 95.5625L240.742 124H235.195L240.137 95.5625H245.684ZM258.457 116.363C258.535 115.777 258.516 115.27 258.398 114.84C258.294 114.41 258.099 114.033 257.812 113.707C257.539 113.368 257.201 113.069 256.797 112.809C256.393 112.535 255.938 112.281 255.43 112.047C254.492 111.591 253.62 111.09 252.812 110.543C252.005 109.996 251.289 109.378 250.664 108.688C250.052 107.997 249.59 107.21 249.277 106.324C248.965 105.426 248.848 104.417 248.926 103.297C249.017 102.021 249.342 100.875 249.902 99.8594C250.462 98.8438 251.191 97.9844 252.09 97.2812C252.988 96.5651 253.997 96.0312 255.117 95.6797C256.237 95.3151 257.409 95.1458 258.633 95.1719C260.339 95.2109 261.771 95.6276 262.93 96.4219C264.089 97.2031 264.948 98.2513 265.508 99.5664C266.081 100.868 266.341 102.333 266.289 103.961L260.723 103.941C260.762 103.316 260.723 102.685 260.605 102.047C260.501 101.409 260.254 100.888 259.863 100.484C259.486 100.068 258.906 99.8529 258.125 99.8398C257.435 99.8398 256.829 99.9961 256.309 100.309C255.788 100.608 255.365 101.018 255.039 101.539C254.714 102.06 254.505 102.646 254.414 103.297C254.349 103.805 254.401 104.26 254.57 104.664C254.753 105.068 255 105.432 255.312 105.758C255.638 106.07 256.003 106.357 256.406 106.617C256.81 106.878 257.214 107.092 257.617 107.262C258.594 107.757 259.492 108.277 260.312 108.824C261.146 109.371 261.849 110.003 262.422 110.719C263.008 111.422 263.431 112.236 263.691 113.16C263.965 114.085 264.062 115.139 263.984 116.324C263.88 117.639 263.561 118.798 263.027 119.801C262.507 120.803 261.816 121.656 260.957 122.359C260.098 123.049 259.115 123.57 258.008 123.922C256.901 124.273 255.716 124.436 254.453 124.41C253.099 124.371 251.888 124.117 250.82 123.648C249.753 123.167 248.854 122.509 248.125 121.676C247.409 120.829 246.875 119.84 246.523 118.707C246.172 117.561 246.035 116.331 246.113 115.016L251.68 115.035C251.641 115.647 251.647 116.24 251.699 116.812C251.751 117.385 251.895 117.887 252.129 118.316C252.363 118.746 252.702 119.091 253.145 119.352C253.587 119.612 254.173 119.742 254.902 119.742C255.592 119.742 256.185 119.599 256.68 119.312C257.174 119.013 257.572 118.609 257.871 118.102C258.171 117.594 258.366 117.014 258.457 116.363Z" fill="#FF9601"/>
<defs>
<linearGradient id="paint0_linear_12_6" x1="442" y1="-96.5" x2="297" y2="271" gradientUnits="userSpaceOnUse">
<stop stop-color="#9A9A9A"/>
<stop offset="1" stop-color="#0B0B0B"/>
</linearGradient>
</defs>
</svg>
